<svg xmlns="http://www.w3.org/2000/svg" xmlns:xlink="http://www.w3.org/1999/xlink" width="150" zoomAndPan="magnify" viewBox="0 0 112.5 74.999997" height="100" preserveAspectRatio="xMidYMid meet" version="1.0"><defs><g/></defs><g fill="#ab7b60" fill-opacity="0.4"><g transform="translate(13.435091, 46.110365)"><g><path d="M 14.152344 -20.011719 L 14.152344 -12.292969 L 6.605469 -12.292969 L 6.605469 -20.011719 L 2.285156 -20.011719 L 2.285156 0 L 6.605469 0 L 6.605469 -8.261719 L 14.152344 -8.261719 L 14.152344 0 L 18.46875 0 L 18.46875 -20.011719 Z M 14.152344 -20.011719 "/></g></g></g><g fill="#ab7b60" fill-opacity="0.4"><g transform="translate(34.217288, 46.110365)"><g><path d="M 11.777344 0.457031 C 17.867188 0.457031 22.414062 -4.03125 22.414062 -10.007812 C 22.414062 -15.953125 17.867188 -20.441406 11.777344 -20.441406 C 5.660156 -20.441406 1.085938 -15.925781 1.085938 -10.007812 C 1.085938 -4.058594 5.660156 0.457031 11.777344 0.457031 Z M 11.777344 -3.628906 C 8.203125 -3.628906 5.488281 -6.402344 5.488281 -10.007812 C 5.488281 -13.609375 8.203125 -16.351562 11.777344 -16.351562 C 15.351562 -16.351562 18.011719 -13.636719 18.011719 -10.007812 C 18.011719 -6.375 15.351562 -3.628906 11.777344 -3.628906 Z M 11.777344 -3.628906 "/></g></g></g><g fill="#ab7b60" fill-opacity="0.4"><g transform="translate(57.743765, 46.110365)"><g><path d="M 26.789062 0 L 23.699219 -20.011719 L 19.355469 -20.011719 L 13.921875 -7.71875 L 8.492188 -20.011719 L 4.175781 -20.011719 L 1.027344 0 L 5.433594 0 L 7.40625 -13.035156 L 13.378906 -0.0273438 L 14.4375 -0.0273438 L 20.414062 -13.035156 L 22.386719 0 Z M 26.789062 0 "/></g></g></g><g fill="#ab7b60" fill-opacity="0.4"><g transform="translate(85.61535, 46.110365)"><g><path d="M 6.605469 -4.003906 L 6.605469 -8.121094 L 13.550781 -8.121094 L 13.550781 -12.035156 L 6.605469 -12.035156 L 6.605469 -16.007812 L 14.292969 -16.007812 L 14.292969 -20.011719 L 2.285156 -20.011719 L 2.285156 0 L 14.609375 0 L 14.609375 -4.003906 Z M 6.605469 -4.003906 "/></g></g></g><g fill="#ab7b60" fill-opacity="1"><g transform="translate(12.171474, 44.846747)"><g><path d="M 14.152344 -20.011719 L 14.152344 -12.292969 L 6.605469 -12.292969 L 6.605469 -20.011719 L 2.285156 -20.011719 L 2.285156 0 L 6.605469 0 L 6.605469 -8.261719 L 14.152344 -8.261719 L 14.152344 0 L 18.46875 0 L 18.46875 -20.011719 Z M 14.152344 -20.011719 "/></g></g></g><g fill="#ab7b60" fill-opacity="1"><g transform="translate(32.953671, 44.846747)"><g><path d="M 11.777344 0.457031 C 17.867188 0.457031 22.414062 -4.03125 22.414062 -10.007812 C 22.414062 -15.953125 17.867188 -20.441406 11.777344 -20.441406 C 5.660156 -20.441406 1.085938 -15.925781 1.085938 -10.007812 C 1.085938 -4.058594 5.660156 0.457031 11.777344 0.457031 Z M 11.777344 -3.628906 C 8.203125 -3.628906 5.488281 -6.402344 5.488281 -10.007812 C 5.488281 -13.609375 8.203125 -16.351562 11.777344 -16.351562 C 15.351562 -16.351562 18.011719 -13.636719 18.011719 -10.007812 C 18.011719 -6.375 15.351562 -3.628906 11.777344 -3.628906 Z M 11.777344 -3.628906 "/></g></g></g><g fill="#ab7b60" fill-opacity="1"><g transform="translate(56.480148, 44.846747)"><g><path d="M 26.789062 0 L 23.699219 -20.011719 L 19.355469 -20.011719 L 13.921875 -7.71875 L 8.492188 -20.011719 L 4.175781 -20.011719 L 1.027344 0 L 5.433594 0 L 7.40625 -13.035156 L 13.378906 -0.0273438 L 14.4375 -0.0273438 L 20.414062 -13.035156 L 22.386719 0 Z M 26.789062 0 "/></g></g></g><g fill="#ab7b60" fill-opacity="1"><g transform="translate(84.351733, 44.846747)"><g><path d="M 6.605469 -4.003906 L 6.605469 -8.121094 L 13.550781 -8.121094 L 13.550781 -12.035156 L 6.605469 -12.035156 L 6.605469 -16.007812 L 14.292969 -16.007812 L 14.292969 -20.011719 L 2.285156 -20.011719 L 2.285156 0 L 14.609375 0 L 14.609375 -4.003906 Z M 6.605469 -4.003906 "/></g></g></g><g fill="#222222" fill-opacity="0.302"><g transform="translate(28.436986, 65.132993)"><g><path d="M 10.148438 -19.039062 C 10.007812 -19.097656 9.835938 -19.125 9.632812 -19.125 C 8.089844 -19.125 6.574219 -17.066406 5.890625 -15.925781 C 4.257812 -13.265625 1.65625 -8.121094 0.398438 -5.632812 C 0.171875 -5.203125 0 -4.859375 -0.113281 -4.601562 C -1.402344 -2.144531 -3.574219 2.144531 -4.03125 4.972656 C -4.144531 5.832031 -4.089844 6.460938 -3.800781 6.890625 C -3.515625 7.347656 -3.058594 7.460938 -2.542969 7.460938 C 0.171875 7.347656 2.628906 0.828125 3.058594 -1.773438 C 3.257812 -1.742188 3.488281 -1.714844 3.714844 -1.714844 C 5.601562 -1.714844 7.347656 -3.171875 8.546875 -4.488281 C 8.632812 -4.601562 8.632812 -4.773438 8.519531 -4.859375 C 8.460938 -4.917969 8.40625 -4.945312 8.320312 -4.945312 C 8.261719 -4.945312 8.203125 -4.917969 8.148438 -4.859375 C 7.0625 -3.6875 5.402344 -2.257812 3.6875 -2.257812 C 3.488281 -2.257812 3.316406 -2.285156 3.171875 -2.316406 C 3.34375 -3.515625 3.257812 -4.289062 2.886719 -4.632812 C 2.800781 -4.71875 2.660156 -4.832031 2.402344 -4.832031 C 2.285156 -4.832031 2.144531 -4.804688 2 -4.746094 C 1.488281 -4.515625 1.230469 -4.089844 1.257812 -3.574219 C 1.257812 -2.886719 1.800781 -2.257812 2.542969 -1.945312 C 2.34375 -0.945312 2 0.230469 1.574219 1.402344 C 0.316406 4.6875 -1.316406 6.859375 -2.574219 6.917969 C -2.945312 6.917969 -3.203125 6.804688 -3.34375 6.574219 C -3.601562 6.175781 -3.714844 5.117188 -2.746094 2.457031 C -2.117188 0.714844 -1.113281 -1.457031 0.371094 -4.375 C 0.484375 -4.601562 0.65625 -4.945312 0.886719 -5.402344 C 2.144531 -7.863281 4.71875 -13.007812 6.347656 -15.636719 C 7.691406 -17.839844 8.917969 -18.582031 9.664062 -18.582031 C 9.777344 -18.582031 9.863281 -18.554688 9.949219 -18.527344 C 9.976562 -18.496094 10.035156 -18.496094 10.0625 -18.496094 C 10.175781 -18.496094 10.292969 -18.554688 10.320312 -18.667969 C 10.347656 -18.8125 10.292969 -18.984375 10.148438 -19.039062 Z M 1.800781 -3.574219 C 1.773438 -3.859375 1.945312 -4.089844 2.230469 -4.230469 C 2.316406 -4.257812 2.371094 -4.289062 2.402344 -4.289062 C 2.457031 -4.289062 2.488281 -4.257812 2.515625 -4.230469 C 2.6875 -4.089844 2.773438 -3.546875 2.628906 -2.488281 C 2.085938 -2.773438 1.800781 -3.230469 1.800781 -3.574219 Z M 1.800781 -3.574219 "/></g></g></g><g fill="#222222" fill-opacity="0.302"><g transform="translate(36.584067, 65.132993)"><g><path d="M 11.578125 -4.859375 C 10.691406 -3.6875 8.320312 -0.828125 6.976562 -0.542969 C 6.777344 -0.484375 6.574219 -0.484375 6.402344 -0.484375 C 6.0625 -0.484375 5.773438 -0.570312 5.632812 -0.773438 C 5.144531 -1.402344 5.632812 -3.058594 6.289062 -4.429688 C 6.605469 -5.003906 8.289062 -8.121094 8.320312 -8.175781 C 8.375 -8.289062 8.347656 -8.460938 8.203125 -8.546875 C 8.148438 -8.578125 8.121094 -8.578125 8.0625 -8.578125 C 7.976562 -8.578125 7.890625 -8.519531 7.832031 -8.433594 C 7.605469 -8.0625 7.375 -7.605469 7.117188 -7.117188 C 5.773438 -4.632812 3.746094 -0.859375 1.457031 -0.515625 C 1.285156 -0.484375 1.144531 -0.484375 1 -0.484375 C 0.484375 -0.484375 0.144531 -0.628906 -0.0585938 -0.914062 C -0.570312 -1.628906 -0.199219 -3.230469 0.398438 -4.429688 C 0.6875 -4.972656 1.402344 -6.375 2.34375 -8.121094 C 2.402344 -8.261719 2.34375 -8.40625 2.230469 -8.492188 C 2.171875 -8.519531 2.144531 -8.519531 2.085938 -8.519531 C 2 -8.519531 1.886719 -8.460938 1.859375 -8.375 C 0.914062 -6.632812 0.199219 -5.230469 -0.0859375 -4.660156 C -0.429688 -4.003906 -0.65625 -3.257812 -0.773438 -2.601562 C -0.914062 -1.742188 -0.828125 -1.058594 -0.484375 -0.601562 C -0.199219 -0.171875 0.316406 0.0585938 1 0.0585938 C 2.746094 0.0585938 4.03125 -1.316406 5.03125 -2.601562 C 4.832031 -1.800781 4.804688 -0.972656 5.203125 -0.429688 C 5.460938 -0.0859375 5.859375 0.0859375 6.402344 0.0859375 C 6.605469 0.0859375 6.832031 0.0585938 7.0625 0 C 8.519531 -0.285156 10.148438 -2.285156 11.722656 -4.203125 C 11.835938 -4.289062 11.921875 -4.402344 12.007812 -4.515625 C 12.09375 -4.632812 12.09375 -4.804688 11.949219 -4.890625 C 11.894531 -4.945312 11.835938 -4.972656 11.777344 -4.972656 C 11.691406 -4.972656 11.636719 -4.917969 11.578125 -4.859375 Z M 11.578125 -4.859375 "/></g></g></g><g fill="#222222" fill-opacity="0.302"><g transform="translate(48.161497, 65.132993)"><g><path d="M 8.40625 -4.890625 C 8.347656 -4.917969 8.289062 -4.945312 8.234375 -4.945312 C 8.148438 -4.945312 8.0625 -4.917969 8.003906 -4.859375 C 6.832031 -3.429688 4.71875 -1.65625 2.628906 -0.828125 C 3.203125 -1.457031 3.628906 -2.371094 3.886719 -3.546875 C 4.230469 -5.175781 3.6875 -7.0625 3.171875 -8.40625 C 3.402344 -8.75 3.800781 -9.433594 4.175781 -10.207031 C 4.945312 -11.75 5.230469 -12.894531 5.003906 -13.609375 C 4.859375 -14.152344 4.34375 -14.4375 3.800781 -14.4375 C 2.628906 -14.4375 1.945312 -13.238281 1.742188 -12.207031 C 1.601562 -11.433594 1.6875 -10.605469 1.972656 -9.835938 C 2.03125 -9.71875 2.085938 -9.578125 2.171875 -9.378906 C 2.285156 -9.148438 2.402344 -8.832031 2.542969 -8.433594 C 2.085938 -7.71875 1.257812 -6.402344 -0.0585938 -4.773438 C -0.171875 -4.660156 -0.144531 -4.488281 -0.0273438 -4.375 C -0.0273438 -4.375 0.0273438 -4.34375 0.113281 -4.34375 C 0.199219 -4.34375 0.285156 -4.375 0.34375 -4.429688 C 1.515625 -5.859375 2.316406 -7.0625 2.800781 -7.804688 C 3.230469 -6.574219 3.628906 -5.003906 3.34375 -3.660156 C 2.917969 -1.65625 1.886719 -0.457031 0.570312 -0.457031 C 0 -0.484375 -0.457031 -0.628906 -0.714844 -0.914062 C -0.945312 -1.199219 -0.972656 -1.542969 -0.742188 -2 C -0.6875 -2.117188 -0.742188 -2.285156 -0.859375 -2.34375 C -0.914062 -2.371094 -0.945312 -2.371094 -1 -2.371094 C -1.085938 -2.371094 -1.199219 -2.316406 -1.230469 -2.230469 C -1.542969 -1.601562 -1.515625 -1 -1.113281 -0.570312 C -0.742188 -0.113281 -0.0273438 0.113281 0.773438 0.113281 C 3.429688 0.113281 6.859375 -2.574219 8.433594 -4.488281 C 8.546875 -4.601562 8.519531 -4.804688 8.40625 -4.890625 Z M 2.660156 -9.605469 C 2.601562 -9.777344 2.515625 -9.949219 2.488281 -10.035156 C 1.945312 -11.492188 2.34375 -12.921875 3 -13.550781 C 3.171875 -13.695312 3.429688 -13.894531 3.773438 -13.894531 C 3.886719 -13.894531 4.03125 -13.867188 4.144531 -13.808594 C 4.316406 -13.75 4.429688 -13.636719 4.488281 -13.4375 C 4.773438 -12.464844 3.660156 -10.292969 2.917969 -9.035156 C 2.832031 -9.261719 2.746094 -9.433594 2.660156 -9.605469 Z M 2.660156 -9.605469 "/></g></g></g><g fill="#222222" fill-opacity="0.302"><g transform="translate(56.194233, 65.132993)"><g><path d="M 6.574219 -4.890625 C 6.519531 -4.917969 6.460938 -4.945312 6.402344 -4.945312 C 6.316406 -4.945312 6.261719 -4.917969 6.203125 -4.859375 C 4.058594 -2.34375 2.203125 -0.773438 1.058594 -0.542969 C 0.859375 -0.484375 0.65625 -0.484375 0.484375 -0.484375 C 0.144531 -0.484375 -0.113281 -0.570312 -0.257812 -0.773438 C -0.742188 -1.402344 -0.285156 -3.058594 0.398438 -4.402344 C 0.6875 -5.003906 2.402344 -8.121094 2.402344 -8.148438 C 2.488281 -8.289062 2.429688 -8.460938 2.316406 -8.519531 C 2.257812 -8.546875 2.230469 -8.546875 2.171875 -8.546875 C 2.058594 -8.546875 1.972656 -8.519531 1.914062 -8.433594 C 1.859375 -8.289062 0.199219 -5.261719 -0.0859375 -4.660156 C -0.457031 -3.945312 -1.542969 -1.542969 -0.6875 -0.429688 C -0.429688 -0.0859375 -0.0273438 0.0859375 0.484375 0.0859375 C 2.660156 0.0859375 5.316406 -2.945312 6.605469 -4.488281 C 6.71875 -4.601562 6.691406 -4.773438 6.574219 -4.890625 Z M 2.773438 -9.546875 C 2.800781 -9.546875 2.859375 -9.519531 2.886719 -9.519531 C 3 -9.519531 3.085938 -9.578125 3.144531 -9.691406 L 3.546875 -10.464844 C 3.601562 -10.578125 3.574219 -10.75 3.429688 -10.804688 C 3.375 -10.835938 3.34375 -10.835938 3.289062 -10.835938 C 3.203125 -10.835938 3.085938 -10.777344 3.058594 -10.691406 L 2.660156 -9.921875 C 2.574219 -9.804688 2.628906 -9.632812 2.773438 -9.546875 Z M 2.773438 -9.546875 "/></g></g></g><g fill="#222222" fill-opacity="0.302"><g transform="translate(62.397449, 65.132993)"><g><path d="M 12.292969 -4.890625 C 12.234375 -4.917969 12.148438 -4.945312 12.09375 -4.945312 C 12.007812 -4.945312 11.949219 -4.917969 11.894531 -4.859375 C 10.863281 -3.546875 9.433594 -2.800781 7.976562 -2.800781 C 7.433594 -2.800781 6.890625 -2.917969 6.402344 -3.117188 C 7.40625 -4.660156 8.0625 -7.003906 6.261719 -8.121094 C 5.945312 -8.289062 5.632812 -8.40625 5.316406 -8.433594 C 5.203125 -8.546875 5.03125 -8.632812 4.859375 -8.691406 C 4.71875 -8.75 4.574219 -8.777344 4.375 -8.777344 C 2.203125 -8.777344 -0.34375 -4.972656 -0.601562 -3.117188 C -0.742188 -2.257812 -0.628906 -1.515625 -0.285156 -0.945312 C 0.144531 -0.285156 0.828125 0.0585938 1.6875 0.0585938 C 3.429688 0.0585938 5.03125 -1.34375 6.089844 -2.660156 C 6.660156 -2.371094 7.320312 -2.257812 8.003906 -2.257812 C 9.605469 -2.257812 11.179688 -3.085938 12.320312 -4.515625 C 12.40625 -4.632812 12.40625 -4.804688 12.292969 -4.890625 Z M 1.6875 -0.515625 C 1 -0.515625 0.515625 -0.773438 0.199219 -1.257812 C -0.0859375 -1.6875 -0.171875 -2.316406 -0.0585938 -3.03125 C 0.199219 -4.773438 1.828125 -6.917969 3.230469 -7.804688 C 3.660156 -8.089844 4.03125 -8.234375 4.34375 -8.234375 C 4.402344 -8.234375 4.460938 -8.234375 4.515625 -8.203125 C 4.402344 -8.148438 4.289062 -8.035156 4.203125 -7.917969 C 3.230469 -6.804688 3.6875 -4.890625 4.515625 -3.886719 C 4.832031 -3.515625 5.203125 -3.171875 5.601562 -2.917969 C 4.6875 -1.742188 3.257812 -0.515625 1.6875 -0.515625 Z M 5.917969 -3.375 C 5.546875 -3.601562 5.230469 -3.886719 4.945312 -4.230469 C 4.003906 -5.375 4.03125 -6.917969 4.601562 -7.574219 C 4.746094 -7.71875 4.917969 -7.832031 5.117188 -7.863281 C 5.433594 -7.460938 5.601562 -6.777344 5.546875 -6.003906 C 5.519531 -5.832031 5.632812 -5.71875 5.804688 -5.6875 C 5.945312 -5.6875 6.089844 -5.804688 6.089844 -5.945312 C 6.148438 -6.632812 6.03125 -7.234375 5.832031 -7.71875 C 5.890625 -7.691406 5.917969 -7.660156 5.976562 -7.632812 C 7.574219 -6.691406 6.660156 -4.488281 5.917969 -3.375 Z M 5.917969 -3.375 "/></g></g></g><g fill="#222222" fill-opacity="0.302"><g transform="translate(74.289326, 65.132993)"><g><path d="M 12.949219 -4.890625 C 12.894531 -4.917969 12.835938 -4.945312 12.777344 -4.945312 C 12.695312 -4.945312 12.636719 -4.917969 12.578125 -4.859375 C 10.578125 -2.515625 8.605469 -0.859375 7.433594 -0.542969 C 7.289062 -0.484375 7.117188 -0.457031 6.945312 -0.457031 C 6.691406 -0.457031 6.433594 -0.542969 6.230469 -0.742188 C 5.804688 -1.230469 5.859375 -2.257812 6.316406 -3.402344 C 6.488281 -3.832031 6.71875 -4.289062 6.945312 -4.746094 C 7.660156 -6.203125 8.320312 -7.574219 7.804688 -8.289062 C 7.632812 -8.546875 7.289062 -8.691406 6.859375 -8.691406 C 6.71875 -8.691406 6.605469 -8.691406 6.460938 -8.664062 C 4.144531 -8.347656 2.171875 -6.605469 0.65625 -4.945312 C 1.171875 -5.859375 1.742188 -6.917969 2.402344 -8.0625 C 2.457031 -8.175781 2.429688 -8.347656 2.285156 -8.433594 C 2.230469 -8.460938 2.203125 -8.460938 2.144531 -8.460938 C 2.058594 -8.460938 1.945312 -8.40625 1.914062 -8.320312 C 0.371094 -5.574219 -2.257812 -0.828125 -2.660156 0 C -2.746094 0.144531 -2.6875 0.316406 -2.542969 0.371094 C -2.515625 0.398438 -2.457031 0.398438 -2.429688 0.398438 C -2.316406 0.398438 -2.230469 0.34375 -2.171875 0.257812 C -2.171875 0.199219 -2.058594 0.0585938 -2.03125 0.0273438 C -0.65625 -3.03125 3.058594 -7.632812 6.546875 -8.121094 C 6.660156 -8.121094 6.777344 -8.148438 6.890625 -8.148438 C 7.089844 -8.148438 7.289062 -8.121094 7.375 -7.976562 C 7.460938 -7.863281 7.519531 -7.574219 7.289062 -6.859375 C 7.089844 -6.316406 6.777344 -5.632812 6.460938 -5.003906 C 6.230469 -4.515625 6.003906 -4.058594 5.804688 -3.628906 C 5.230469 -2.257812 5.261719 -1.027344 5.832031 -0.371094 C 6.089844 -0.0585938 6.488281 0.0859375 6.945312 0.0859375 C 8.917969 0.0859375 11.777344 -3.058594 12.980469 -4.488281 C 13.09375 -4.601562 13.066406 -4.773438 12.949219 -4.890625 Z M 12.949219 -4.890625 "/></g></g></g><g fill="#222222" fill-opacity="0.502"><g transform="translate(27.736221, 64.053911)"><g><path d="M 10.148438 -19.039062 C 10.007812 -19.097656 9.835938 -19.125 9.632812 -19.125 C 8.089844 -19.125 6.574219 -17.066406 5.890625 -15.925781 C 4.257812 -13.265625 1.65625 -8.121094 0.398438 -5.632812 C 0.171875 -5.203125 0 -4.859375 -0.113281 -4.601562 C -1.402344 -2.144531 -3.574219 2.144531 -4.03125 4.972656 C -4.144531 5.832031 -4.089844 6.460938 -3.800781 6.890625 C -3.515625 7.347656 -3.058594 7.460938 -2.542969 7.460938 C 0.171875 7.347656 2.628906 0.828125 3.058594 -1.773438 C 3.257812 -1.742188 3.488281 -1.714844 3.714844 -1.714844 C 5.601562 -1.714844 7.347656 -3.171875 8.546875 -4.488281 C 8.632812 -4.601562 8.632812 -4.773438 8.519531 -4.859375 C 8.460938 -4.917969 8.40625 -4.945312 8.320312 -4.945312 C 8.261719 -4.945312 8.203125 -4.917969 8.148438 -4.859375 C 7.0625 -3.6875 5.402344 -2.257812 3.6875 -2.257812 C 3.488281 -2.257812 3.316406 -2.285156 3.171875 -2.316406 C 3.34375 -3.515625 3.257812 -4.289062 2.886719 -4.632812 C 2.800781 -4.71875 2.660156 -4.832031 2.402344 -4.832031 C 2.285156 -4.832031 2.144531 -4.804688 2 -4.746094 C 1.488281 -4.515625 1.230469 -4.089844 1.257812 -3.574219 C 1.257812 -2.886719 1.800781 -2.257812 2.542969 -1.945312 C 2.34375 -0.945312 2 0.230469 1.574219 1.402344 C 0.316406 4.6875 -1.316406 6.859375 -2.574219 6.917969 C -2.945312 6.917969 -3.203125 6.804688 -3.34375 6.574219 C -3.601562 6.175781 -3.714844 5.117188 -2.746094 2.457031 C -2.117188 0.714844 -1.113281 -1.457031 0.371094 -4.375 C 0.484375 -4.601562 0.65625 -4.945312 0.886719 -5.402344 C 2.144531 -7.863281 4.71875 -13.007812 6.347656 -15.636719 C 7.691406 -17.839844 8.917969 -18.582031 9.664062 -18.582031 C 9.777344 -18.582031 9.863281 -18.554688 9.949219 -18.527344 C 9.976562 -18.496094 10.035156 -18.496094 10.0625 -18.496094 C 10.175781 -18.496094 10.292969 -18.554688 10.320312 -18.667969 C 10.347656 -18.8125 10.292969 -18.984375 10.148438 -19.039062 Z M 1.800781 -3.574219 C 1.773438 -3.859375 1.945312 -4.089844 2.230469 -4.230469 C 2.316406 -4.257812 2.371094 -4.289062 2.402344 -4.289062 C 2.457031 -4.289062 2.488281 -4.257812 2.515625 -4.230469 C 2.6875 -4.089844 2.773438 -3.546875 2.628906 -2.488281 C 2.085938 -2.773438 1.800781 -3.230469 1.800781 -3.574219 Z M 1.800781 -3.574219 "/></g></g></g><g fill="#222222" fill-opacity="0.502"><g transform="translate(35.883302, 64.053911)"><g><path d="M 11.578125 -4.859375 C 10.691406 -3.6875 8.320312 -0.828125 6.976562 -0.542969 C 6.777344 -0.484375 6.574219 -0.484375 6.402344 -0.484375 C 6.0625 -0.484375 5.773438 -0.570312 5.632812 -0.773438 C 5.144531 -1.402344 5.632812 -3.058594 6.289062 -4.429688 C 6.605469 -5.003906 8.289062 -8.121094 8.320312 -8.175781 C 8.375 -8.289062 8.347656 -8.460938 8.203125 -8.546875 C 8.148438 -8.578125 8.121094 -8.578125 8.0625 -8.578125 C 7.976562 -8.578125 7.890625 -8.519531 7.832031 -8.433594 C 7.605469 -8.0625 7.375 -7.605469 7.117188 -7.117188 C 5.773438 -4.632812 3.746094 -0.859375 1.457031 -0.515625 C 1.285156 -0.484375 1.144531 -0.484375 1 -0.484375 C 0.484375 -0.484375 0.144531 -0.628906 -0.0585938 -0.914062 C -0.570312 -1.628906 -0.199219 -3.230469 0.398438 -4.429688 C 0.6875 -4.972656 1.402344 -6.375 2.34375 -8.121094 C 2.402344 -8.261719 2.34375 -8.40625 2.230469 -8.492188 C 2.171875 -8.519531 2.144531 -8.519531 2.085938 -8.519531 C 2 -8.519531 1.886719 -8.460938 1.859375 -8.375 C 0.914062 -6.632812 0.199219 -5.230469 -0.0859375 -4.660156 C -0.429688 -4.003906 -0.65625 -3.257812 -0.773438 -2.601562 C -0.914062 -1.742188 -0.828125 -1.058594 -0.484375 -0.601562 C -0.199219 -0.171875 0.316406 0.0585938 1 0.0585938 C 2.746094 0.0585938 4.03125 -1.316406 5.03125 -2.601562 C 4.832031 -1.800781 4.804688 -0.972656 5.203125 -0.429688 C 5.460938 -0.0859375 5.859375 0.0859375 6.402344 0.0859375 C 6.605469 0.0859375 6.832031 0.0585938 7.0625 0 C 8.519531 -0.285156 10.148438 -2.285156 11.722656 -4.203125 C 11.835938 -4.289062 11.921875 -4.402344 12.007812 -4.515625 C 12.09375 -4.632812 12.09375 -4.804688 11.949219 -4.890625 C 11.894531 -4.945312 11.835938 -4.972656 11.777344 -4.972656 C 11.691406 -4.972656 11.636719 -4.917969 11.578125 -4.859375 Z M 11.578125 -4.859375 "/></g></g></g><g fill="#222222" fill-opacity="0.502"><g transform="translate(47.460732, 64.053911)"><g><path d="M 8.40625 -4.890625 C 8.347656 -4.917969 8.289062 -4.945312 8.234375 -4.945312 C 8.148438 -4.945312 8.0625 -4.917969 8.003906 -4.859375 C 6.832031 -3.429688 4.71875 -1.65625 2.628906 -0.828125 C 3.203125 -1.457031 3.628906 -2.371094 3.886719 -3.546875 C 4.230469 -5.175781 3.6875 -7.0625 3.171875 -8.40625 C 3.402344 -8.75 3.800781 -9.433594 4.175781 -10.207031 C 4.945312 -11.75 5.230469 -12.894531 5.003906 -13.609375 C 4.859375 -14.152344 4.34375 -14.4375 3.800781 -14.4375 C 2.628906 -14.4375 1.945312 -13.238281 1.742188 -12.207031 C 1.601562 -11.433594 1.6875 -10.605469 1.972656 -9.835938 C 2.03125 -9.71875 2.085938 -9.578125 2.171875 -9.378906 C 2.285156 -9.148438 2.402344 -8.832031 2.542969 -8.433594 C 2.085938 -7.71875 1.257812 -6.402344 -0.0585938 -4.773438 C -0.171875 -4.660156 -0.144531 -4.488281 -0.0273438 -4.375 C -0.0273438 -4.375 0.0273438 -4.34375 0.113281 -4.34375 C 0.199219 -4.34375 0.285156 -4.375 0.34375 -4.429688 C 1.515625 -5.859375 2.316406 -7.0625 2.800781 -7.804688 C 3.230469 -6.574219 3.628906 -5.003906 3.34375 -3.660156 C 2.917969 -1.65625 1.886719 -0.457031 0.570312 -0.457031 C 0 -0.484375 -0.457031 -0.628906 -0.714844 -0.914062 C -0.945312 -1.199219 -0.972656 -1.542969 -0.742188 -2 C -0.6875 -2.117188 -0.742188 -2.285156 -0.859375 -2.34375 C -0.914062 -2.371094 -0.945312 -2.371094 -1 -2.371094 C -1.085938 -2.371094 -1.199219 -2.316406 -1.230469 -2.230469 C -1.542969 -1.601562 -1.515625 -1 -1.113281 -0.570312 C -0.742188 -0.113281 -0.0273438 0.113281 0.773438 0.113281 C 3.429688 0.113281 6.859375 -2.574219 8.433594 -4.488281 C 8.546875 -4.601562 8.519531 -4.804688 8.40625 -4.890625 Z M 2.660156 -9.605469 C 2.601562 -9.777344 2.515625 -9.949219 2.488281 -10.035156 C 1.945312 -11.492188 2.34375 -12.921875 3 -13.550781 C 3.171875 -13.695312 3.429688 -13.894531 3.773438 -13.894531 C 3.886719 -13.894531 4.03125 -13.867188 4.144531 -13.808594 C 4.316406 -13.75 4.429688 -13.636719 4.488281 -13.4375 C 4.773438 -12.464844 3.660156 -10.292969 2.917969 -9.035156 C 2.832031 -9.261719 2.746094 -9.433594 2.660156 -9.605469 Z M 2.660156 -9.605469 "/></g></g></g><g fill="#222222" fill-opacity="0.502"><g transform="translate(55.493468, 64.053911)"><g><path d="M 6.574219 -4.890625 C 6.519531 -4.917969 6.460938 -4.945312 6.402344 -4.945312 C 6.316406 -4.945312 6.261719 -4.917969 6.203125 -4.859375 C 4.058594 -2.34375 2.203125 -0.773438 1.058594 -0.542969 C 0.859375 -0.484375 0.65625 -0.484375 0.484375 -0.484375 C 0.144531 -0.484375 -0.113281 -0.570312 -0.257812 -0.773438 C -0.742188 -1.402344 -0.285156 -3.058594 0.398438 -4.402344 C 0.6875 -5.003906 2.402344 -8.121094 2.402344 -8.148438 C 2.488281 -8.289062 2.429688 -8.460938 2.316406 -8.519531 C 2.257812 -8.546875 2.230469 -8.546875 2.171875 -8.546875 C 2.058594 -8.546875 1.972656 -8.519531 1.914062 -8.433594 C 1.859375 -8.289062 0.199219 -5.261719 -0.0859375 -4.660156 C -0.457031 -3.945312 -1.542969 -1.542969 -0.6875 -0.429688 C -0.429688 -0.0859375 -0.0273438 0.0859375 0.484375 0.0859375 C 2.660156 0.0859375 5.316406 -2.945312 6.605469 -4.488281 C 6.71875 -4.601562 6.691406 -4.773438 6.574219 -4.890625 Z M 2.773438 -9.546875 C 2.800781 -9.546875 2.859375 -9.519531 2.886719 -9.519531 C 3 -9.519531 3.085938 -9.578125 3.144531 -9.691406 L 3.546875 -10.464844 C 3.601562 -10.578125 3.574219 -10.75 3.429688 -10.804688 C 3.375 -10.835938 3.34375 -10.835938 3.289062 -10.835938 C 3.203125 -10.835938 3.085938 -10.777344 3.058594 -10.691406 L 2.660156 -9.921875 C 2.574219 -9.804688 2.628906 -9.632812 2.773438 -9.546875 Z M 2.773438 -9.546875 "/></g></g></g><g fill="#222222" fill-opacity="0.502"><g transform="translate(61.696684, 64.053911)"><g><path d="M 12.292969 -4.890625 C 12.234375 -4.917969 12.148438 -4.945312 12.09375 -4.945312 C 12.007812 -4.945312 11.949219 -4.917969 11.894531 -4.859375 C 10.863281 -3.546875 9.433594 -2.800781 7.976562 -2.800781 C 7.433594 -2.800781 6.890625 -2.917969 6.402344 -3.117188 C 7.40625 -4.660156 8.0625 -7.003906 6.261719 -8.121094 C 5.945312 -8.289062 5.632812 -8.40625 5.316406 -8.433594 C 5.203125 -8.546875 5.03125 -8.632812 4.859375 -8.691406 C 4.71875 -8.75 4.574219 -8.777344 4.375 -8.777344 C 2.203125 -8.777344 -0.34375 -4.972656 -0.601562 -3.117188 C -0.742188 -2.257812 -0.628906 -1.515625 -0.285156 -0.945312 C 0.144531 -0.285156 0.828125 0.0585938 1.6875 0.0585938 C 3.429688 0.0585938 5.03125 -1.34375 6.089844 -2.660156 C 6.660156 -2.371094 7.320312 -2.257812 8.003906 -2.257812 C 9.605469 -2.257812 11.179688 -3.085938 12.320312 -4.515625 C 12.40625 -4.632812 12.40625 -4.804688 12.292969 -4.890625 Z M 1.6875 -0.515625 C 1 -0.515625 0.515625 -0.773438 0.199219 -1.257812 C -0.0859375 -1.6875 -0.171875 -2.316406 -0.0585938 -3.03125 C 0.199219 -4.773438 1.828125 -6.917969 3.230469 -7.804688 C 3.660156 -8.089844 4.03125 -8.234375 4.34375 -8.234375 C 4.402344 -8.234375 4.460938 -8.234375 4.515625 -8.203125 C 4.402344 -8.148438 4.289062 -8.035156 4.203125 -7.917969 C 3.230469 -6.804688 3.6875 -4.890625 4.515625 -3.886719 C 4.832031 -3.515625 5.203125 -3.171875 5.601562 -2.917969 C 4.6875 -1.742188 3.257812 -0.515625 1.6875 -0.515625 Z M 5.917969 -3.375 C 5.546875 -3.601562 5.230469 -3.886719 4.945312 -4.230469 C 4.003906 -5.375 4.03125 -6.917969 4.601562 -7.574219 C 4.746094 -7.71875 4.917969 -7.832031 5.117188 -7.863281 C 5.433594 -7.460938 5.601562 -6.777344 5.546875 -6.003906 C 5.519531 -5.832031 5.632812 -5.71875 5.804688 -5.6875 C 5.945312 -5.6875 6.089844 -5.804688 6.089844 -5.945312 C 6.148438 -6.632812 6.03125 -7.234375 5.832031 -7.71875 C 5.890625 -7.691406 5.917969 -7.660156 5.976562 -7.632812 C 7.574219 -6.691406 6.660156 -4.488281 5.917969 -3.375 Z M 5.917969 -3.375 "/></g></g></g><g fill="#222222" fill-opacity="0.502"><g transform="translate(73.588562, 64.053911)"><g><path d="M 12.949219 -4.890625 C 12.894531 -4.917969 12.835938 -4.945312 12.777344 -4.945312 C 12.695312 -4.945312 12.636719 -4.917969 12.578125 -4.859375 C 10.578125 -2.515625 8.605469 -0.859375 7.433594 -0.542969 C 7.289062 -0.484375 7.117188 -0.457031 6.945312 -0.457031 C 6.691406 -0.457031 6.433594 -0.542969 6.230469 -0.742188 C 5.804688 -1.230469 5.859375 -2.257812 6.316406 -3.402344 C 6.488281 -3.832031 6.71875 -4.289062 6.945312 -4.746094 C 7.660156 -6.203125 8.320312 -7.574219 7.804688 -8.289062 C 7.632812 -8.546875 7.289062 -8.691406 6.859375 -8.691406 C 6.71875 -8.691406 6.605469 -8.691406 6.460938 -8.664062 C 4.144531 -8.347656 2.171875 -6.605469 0.65625 -4.945312 C 1.171875 -5.859375 1.742188 -6.917969 2.402344 -8.0625 C 2.457031 -8.175781 2.429688 -8.347656 2.285156 -8.433594 C 2.230469 -8.460938 2.203125 -8.460938 2.144531 -8.460938 C 2.058594 -8.460938 1.945312 -8.40625 1.914062 -8.320312 C 0.371094 -5.574219 -2.257812 -0.828125 -2.660156 0 C -2.746094 0.144531 -2.6875 0.316406 -2.542969 0.371094 C -2.515625 0.398438 -2.457031 0.398438 -2.429688 0.398438 C -2.316406 0.398438 -2.230469 0.34375 -2.171875 0.257812 C -2.171875 0.199219 -2.058594 0.0585938 -2.03125 0.0273438 C -0.65625 -3.03125 3.058594 -7.632812 6.546875 -8.121094 C 6.660156 -8.121094 6.777344 -8.148438 6.890625 -8.148438 C 7.089844 -8.148438 7.289062 -8.121094 7.375 -7.976562 C 7.460938 -7.863281 7.519531 -7.574219 7.289062 -6.859375 C 7.089844 -6.316406 6.777344 -5.632812 6.460938 -5.003906 C 6.230469 -4.515625 6.003906 -4.058594 5.804688 -3.628906 C 5.230469 -2.257812 5.261719 -1.027344 5.832031 -0.371094 C 6.089844 -0.0585938 6.488281 0.0859375 6.945312 0.0859375 C 8.917969 0.0859375 11.777344 -3.058594 12.980469 -4.488281 C 13.09375 -4.601562 13.066406 -4.773438 12.949219 -4.890625 Z M 12.949219 -4.890625 "/></g></g></g><g fill="#222222" fill-opacity="1"><g transform="translate(27.035457, 62.974829)"><g><path d="M 10.148438 -19.039062 C 10.007812 -19.097656 9.835938 -19.125 9.632812 -19.125 C 8.089844 -19.125 6.574219 -17.066406 5.890625 -15.925781 C 4.257812 -13.265625 1.65625 -8.121094 0.398438 -5.632812 C 0.171875 -5.203125 0 -4.859375 -0.113281 -4.601562 C -1.402344 -2.144531 -3.574219 2.144531 -4.03125 4.972656 C -4.144531 5.832031 -4.089844 6.460938 -3.800781 6.890625 C -3.515625 7.347656 -3.058594 7.460938 -2.542969 7.460938 C 0.171875 7.347656 2.628906 0.828125 3.058594 -1.773438 C 3.257812 -1.742188 3.488281 -1.714844 3.714844 -1.714844 C 5.601562 -1.714844 7.347656 -3.171875 8.546875 -4.488281 C 8.632812 -4.601562 8.632812 -4.773438 8.519531 -4.859375 C 8.460938 -4.917969 8.40625 -4.945312 8.320312 -4.945312 C 8.261719 -4.945312 8.203125 -4.917969 8.148438 -4.859375 C 7.0625 -3.6875 5.402344 -2.257812 3.6875 -2.257812 C 3.488281 -2.257812 3.316406 -2.285156 3.171875 -2.316406 C 3.34375 -3.515625 3.257812 -4.289062 2.886719 -4.632812 C 2.800781 -4.71875 2.660156 -4.832031 2.402344 -4.832031 C 2.285156 -4.832031 2.144531 -4.804688 2 -4.746094 C 1.488281 -4.515625 1.230469 -4.089844 1.257812 -3.574219 C 1.257812 -2.886719 1.800781 -2.257812 2.542969 -1.945312 C 2.34375 -0.945312 2 0.230469 1.574219 1.402344 C 0.316406 4.6875 -1.316406 6.859375 -2.574219 6.917969 C -2.945312 6.917969 -3.203125 6.804688 -3.34375 6.574219 C -3.601562 6.175781 -3.714844 5.117188 -2.746094 2.457031 C -2.117188 0.714844 -1.113281 -1.457031 0.371094 -4.375 C 0.484375 -4.601562 0.65625 -4.945312 0.886719 -5.402344 C 2.144531 -7.863281 4.71875 -13.007812 6.347656 -15.636719 C 7.691406 -17.839844 8.917969 -18.582031 9.664062 -18.582031 C 9.777344 -18.582031 9.863281 -18.554688 9.949219 -18.527344 C 9.976562 -18.496094 10.035156 -18.496094 10.0625 -18.496094 C 10.175781 -18.496094 10.292969 -18.554688 10.320312 -18.667969 C 10.347656 -18.8125 10.292969 -18.984375 10.148438 -19.039062 Z M 1.800781 -3.574219 C 1.773438 -3.859375 1.945312 -4.089844 2.230469 -4.230469 C 2.316406 -4.257812 2.371094 -4.289062 2.402344 -4.289062 C 2.457031 -4.289062 2.488281 -4.257812 2.515625 -4.230469 C 2.6875 -4.089844 2.773438 -3.546875 2.628906 -2.488281 C 2.085938 -2.773438 1.800781 -3.230469 1.800781 -3.574219 Z M 1.800781 -3.574219 "/></g></g></g><g fill="#222222" fill-opacity="1"><g transform="translate(35.182538, 62.974829)"><g><path d="M 11.578125 -4.859375 C 10.691406 -3.6875 8.320312 -0.828125 6.976562 -0.542969 C 6.777344 -0.484375 6.574219 -0.484375 6.402344 -0.484375 C 6.0625 -0.484375 5.773438 -0.570312 5.632812 -0.773438 C 5.144531 -1.402344 5.632812 -3.058594 6.289062 -4.429688 C 6.605469 -5.003906 8.289062 -8.121094 8.320312 -8.175781 C 8.375 -8.289062 8.347656 -8.460938 8.203125 -8.546875 C 8.148438 -8.578125 8.121094 -8.578125 8.0625 -8.578125 C 7.976562 -8.578125 7.890625 -8.519531 7.832031 -8.433594 C 7.605469 -8.0625 7.375 -7.605469 7.117188 -7.117188 C 5.773438 -4.632812 3.746094 -0.859375 1.457031 -0.515625 C 1.285156 -0.484375 1.144531 -0.484375 1 -0.484375 C 0.484375 -0.484375 0.144531 -0.628906 -0.0585938 -0.914062 C -0.570312 -1.628906 -0.199219 -3.230469 0.398438 -4.429688 C 0.6875 -4.972656 1.402344 -6.375 2.34375 -8.121094 C 2.402344 -8.261719 2.34375 -8.40625 2.230469 -8.492188 C 2.171875 -8.519531 2.144531 -8.519531 2.085938 -8.519531 C 2 -8.519531 1.886719 -8.460938 1.859375 -8.375 C 0.914062 -6.632812 0.199219 -5.230469 -0.0859375 -4.660156 C -0.429688 -4.003906 -0.65625 -3.257812 -0.773438 -2.601562 C -0.914062 -1.742188 -0.828125 -1.058594 -0.484375 -0.601562 C -0.199219 -0.171875 0.316406 0.0585938 1 0.0585938 C 2.746094 0.0585938 4.03125 -1.316406 5.03125 -2.601562 C 4.832031 -1.800781 4.804688 -0.972656 5.203125 -0.429688 C 5.460938 -0.0859375 5.859375 0.0859375 6.402344 0.0859375 C 6.605469 0.0859375 6.832031 0.0585938 7.0625 0 C 8.519531 -0.285156 10.148438 -2.285156 11.722656 -4.203125 C 11.835938 -4.289062 11.921875 -4.402344 12.007812 -4.515625 C 12.09375 -4.632812 12.09375 -4.804688 11.949219 -4.890625 C 11.894531 -4.945312 11.835938 -4.972656 11.777344 -4.972656 C 11.691406 -4.972656 11.636719 -4.917969 11.578125 -4.859375 Z M 11.578125 -4.859375 "/></g></g></g><g fill="#222222" fill-opacity="1"><g transform="translate(46.759968, 62.974829)"><g><path d="M 8.40625 -4.890625 C 8.347656 -4.917969 8.289062 -4.945312 8.234375 -4.945312 C 8.148438 -4.945312 8.0625 -4.917969 8.003906 -4.859375 C 6.832031 -3.429688 4.71875 -1.65625 2.628906 -0.828125 C 3.203125 -1.457031 3.628906 -2.371094 3.886719 -3.546875 C 4.230469 -5.175781 3.6875 -7.0625 3.171875 -8.40625 C 3.402344 -8.75 3.800781 -9.433594 4.175781 -10.207031 C 4.945312 -11.75 5.230469 -12.894531 5.003906 -13.609375 C 4.859375 -14.152344 4.34375 -14.4375 3.800781 -14.4375 C 2.628906 -14.4375 1.945312 -13.238281 1.742188 -12.207031 C 1.601562 -11.433594 1.6875 -10.605469 1.972656 -9.835938 C 2.03125 -9.71875 2.085938 -9.578125 2.171875 -9.378906 C 2.285156 -9.148438 2.402344 -8.832031 2.542969 -8.433594 C 2.085938 -7.71875 1.257812 -6.402344 -0.0585938 -4.773438 C -0.171875 -4.660156 -0.144531 -4.488281 -0.0273438 -4.375 C -0.0273438 -4.375 0.0273438 -4.34375 0.113281 -4.34375 C 0.199219 -4.34375 0.285156 -4.375 0.34375 -4.429688 C 1.515625 -5.859375 2.316406 -7.0625 2.800781 -7.804688 C 3.230469 -6.574219 3.628906 -5.003906 3.34375 -3.660156 C 2.917969 -1.65625 1.886719 -0.457031 0.570312 -0.457031 C 0 -0.484375 -0.457031 -0.628906 -0.714844 -0.914062 C -0.945312 -1.199219 -0.972656 -1.542969 -0.742188 -2 C -0.6875 -2.117188 -0.742188 -2.285156 -0.859375 -2.34375 C -0.914062 -2.371094 -0.945312 -2.371094 -1 -2.371094 C -1.085938 -2.371094 -1.199219 -2.316406 -1.230469 -2.230469 C -1.542969 -1.601562 -1.515625 -1 -1.113281 -0.570312 C -0.742188 -0.113281 -0.0273438 0.113281 0.773438 0.113281 C 3.429688 0.113281 6.859375 -2.574219 8.433594 -4.488281 C 8.546875 -4.601562 8.519531 -4.804688 8.40625 -4.890625 Z M 2.660156 -9.605469 C 2.601562 -9.777344 2.515625 -9.949219 2.488281 -10.035156 C 1.945312 -11.492188 2.34375 -12.921875 3 -13.550781 C 3.171875 -13.695312 3.429688 -13.894531 3.773438 -13.894531 C 3.886719 -13.894531 4.03125 -13.867188 4.144531 -13.808594 C 4.316406 -13.75 4.429688 -13.636719 4.488281 -13.4375 C 4.773438 -12.464844 3.660156 -10.292969 2.917969 -9.035156 C 2.832031 -9.261719 2.746094 -9.433594 2.660156 -9.605469 Z M 2.660156 -9.605469 "/></g></g></g><g fill="#222222" fill-opacity="1"><g transform="translate(54.792704, 62.974829)"><g><path d="M 6.574219 -4.890625 C 6.519531 -4.917969 6.460938 -4.945312 6.402344 -4.945312 C 6.316406 -4.945312 6.261719 -4.917969 6.203125 -4.859375 C 4.058594 -2.34375 2.203125 -0.773438 1.058594 -0.542969 C 0.859375 -0.484375 0.65625 -0.484375 0.484375 -0.484375 C 0.144531 -0.484375 -0.113281 -0.570312 -0.257812 -0.773438 C -0.742188 -1.402344 -0.285156 -3.058594 0.398438 -4.402344 C 0.6875 -5.003906 2.402344 -8.121094 2.402344 -8.148438 C 2.488281 -8.289062 2.429688 -8.460938 2.316406 -8.519531 C 2.257812 -8.546875 2.230469 -8.546875 2.171875 -8.546875 C 2.058594 -8.546875 1.972656 -8.519531 1.914062 -8.433594 C 1.859375 -8.289062 0.199219 -5.261719 -0.0859375 -4.660156 C -0.457031 -3.945312 -1.542969 -1.542969 -0.6875 -0.429688 C -0.429688 -0.0859375 -0.0273438 0.0859375 0.484375 0.0859375 C 2.660156 0.0859375 5.316406 -2.945312 6.605469 -4.488281 C 6.71875 -4.601562 6.691406 -4.773438 6.574219 -4.890625 Z M 2.773438 -9.546875 C 2.800781 -9.546875 2.859375 -9.519531 2.886719 -9.519531 C 3 -9.519531 3.085938 -9.578125 3.144531 -9.691406 L 3.546875 -10.464844 C 3.601562 -10.578125 3.574219 -10.75 3.429688 -10.804688 C 3.375 -10.835938 3.34375 -10.835938 3.289062 -10.835938 C 3.203125 -10.835938 3.085938 -10.777344 3.058594 -10.691406 L 2.660156 -9.921875 C 2.574219 -9.804688 2.628906 -9.632812 2.773438 -9.546875 Z M 2.773438 -9.546875 "/></g></g></g><g fill="#222222" fill-opacity="1"><g transform="translate(60.99592, 62.974829)"><g><path d="M 12.292969 -4.890625 C 12.234375 -4.917969 12.148438 -4.945312 12.09375 -4.945312 C 12.007812 -4.945312 11.949219 -4.917969 11.894531 -4.859375 C 10.863281 -3.546875 9.433594 -2.800781 7.976562 -2.800781 C 7.433594 -2.800781 6.890625 -2.917969 6.402344 -3.117188 C 7.40625 -4.660156 8.0625 -7.003906 6.261719 -8.121094 C 5.945312 -8.289062 5.632812 -8.40625 5.316406 -8.433594 C 5.203125 -8.546875 5.03125 -8.632812 4.859375 -8.691406 C 4.71875 -8.75 4.574219 -8.777344 4.375 -8.777344 C 2.203125 -8.777344 -0.34375 -4.972656 -0.601562 -3.117188 C -0.742188 -2.257812 -0.628906 -1.515625 -0.285156 -0.945312 C 0.144531 -0.285156 0.828125 0.0585938 1.6875 0.0585938 C 3.429688 0.0585938 5.03125 -1.34375 6.089844 -2.660156 C 6.660156 -2.371094 7.320312 -2.257812 8.003906 -2.257812 C 9.605469 -2.257812 11.179688 -3.085938 12.320312 -4.515625 C 12.40625 -4.632812 12.40625 -4.804688 12.292969 -4.890625 Z M 1.6875 -0.515625 C 1 -0.515625 0.515625 -0.773438 0.199219 -1.257812 C -0.0859375 -1.6875 -0.171875 -2.316406 -0.0585938 -3.03125 C 0.199219 -4.773438 1.828125 -6.917969 3.230469 -7.804688 C 3.660156 -8.089844 4.03125 -8.234375 4.34375 -8.234375 C 4.402344 -8.234375 4.460938 -8.234375 4.515625 -8.203125 C 4.402344 -8.148438 4.289062 -8.035156 4.203125 -7.917969 C 3.230469 -6.804688 3.6875 -4.890625 4.515625 -3.886719 C 4.832031 -3.515625 5.203125 -3.171875 5.601562 -2.917969 C 4.6875 -1.742188 3.257812 -0.515625 1.6875 -0.515625 Z M 5.917969 -3.375 C 5.546875 -3.601562 5.230469 -3.886719 4.945312 -4.230469 C 4.003906 -5.375 4.03125 -6.917969 4.601562 -7.574219 C 4.746094 -7.71875 4.917969 -7.832031 5.117188 -7.863281 C 5.433594 -7.460938 5.601562 -6.777344 5.546875 -6.003906 C 5.519531 -5.832031 5.632812 -5.71875 5.804688 -5.6875 C 5.945312 -5.6875 6.089844 -5.804688 6.089844 -5.945312 C 6.148438 -6.632812 6.03125 -7.234375 5.832031 -7.71875 C 5.890625 -7.691406 5.917969 -7.660156 5.976562 -7.632812 C 7.574219 -6.691406 6.660156 -4.488281 5.917969 -3.375 Z M 5.917969 -3.375 "/></g></g></g><g fill="#222222" fill-opacity="1"><g transform="translate(72.887798, 62.974829)"><g><path d="M 12.949219 -4.890625 C 12.894531 -4.917969 12.835938 -4.945312 12.777344 -4.945312 C 12.695312 -4.945312 12.636719 -4.917969 12.578125 -4.859375 C 10.578125 -2.515625 8.605469 -0.859375 7.433594 -0.542969 C 7.289062 -0.484375 7.117188 -0.457031 6.945312 -0.457031 C 6.691406 -0.457031 6.433594 -0.542969 6.230469 -0.742188 C 5.804688 -1.230469 5.859375 -2.257812 6.316406 -3.402344 C 6.488281 -3.832031 6.71875 -4.289062 6.945312 -4.746094 C 7.660156 -6.203125 8.320312 -7.574219 7.804688 -8.289062 C 7.632812 -8.546875 7.289062 -8.691406 6.859375 -8.691406 C 6.71875 -8.691406 6.605469 -8.691406 6.460938 -8.664062 C 4.144531 -8.347656 2.171875 -6.605469 0.65625 -4.945312 C 1.171875 -5.859375 1.742188 -6.917969 2.402344 -8.0625 C 2.457031 -8.175781 2.429688 -8.347656 2.285156 -8.433594 C 2.230469 -8.460938 2.203125 -8.460938 2.144531 -8.460938 C 2.058594 -8.460938 1.945312 -8.40625 1.914062 -8.320312 C 0.371094 -5.574219 -2.257812 -0.828125 -2.660156 0 C -2.746094 0.144531 -2.6875 0.316406 -2.542969 0.371094 C -2.515625 0.398438 -2.457031 0.398438 -2.429688 0.398438 C -2.316406 0.398438 -2.230469 0.34375 -2.171875 0.257812 C -2.171875 0.199219 -2.058594 0.0585938 -2.03125 0.0273438 C -0.65625 -3.03125 3.058594 -7.632812 6.546875 -8.121094 C 6.660156 -8.121094 6.777344 -8.148438 6.890625 -8.148438 C 7.089844 -8.148438 7.289062 -8.121094 7.375 -7.976562 C 7.460938 -7.863281 7.519531 -7.574219 7.289062 -6.859375 C 7.089844 -6.316406 6.777344 -5.632812 6.460938 -5.003906 C 6.230469 -4.515625 6.003906 -4.058594 5.804688 -3.628906 C 5.230469 -2.257812 5.261719 -1.027344 5.832031 -0.371094 C 6.089844 -0.0585938 6.488281 0.0859375 6.945312 0.0859375 C 8.917969 0.0859375 11.777344 -3.058594 12.980469 -4.488281 C 13.09375 -4.601562 13.066406 -4.773438 12.949219 -4.890625 Z M 12.949219 -4.890625 "/></g></g></g></svg>