<svg xmlns="http://www.w3.org/2000/svg" xmlns:xlink="http://www.w3.org/1999/xlink" width="400" zoomAndPan="magnify" viewBox="0 0 300 112.499997" height="150" preserveAspectRatio="xMidYMid meet" version="1.0"><defs><g/></defs><g fill="#ab7b60" fill-opacity="0.4"><g transform="translate(3.940993, 84.264144)"><g><path d="M 27.921875 -39.488281 L 27.921875 -24.257812 L 13.03125 -24.257812 L 13.03125 -39.488281 L 4.511719 -39.488281 L 4.511719 0 L 13.03125 0 L 13.03125 -16.300781 L 27.921875 -16.300781 L 27.921875 0 L 36.441406 0 L 36.441406 -39.488281 Z M 27.921875 -39.488281 "/></g></g></g><g fill="#ab7b60" fill-opacity="0.4"><g transform="translate(44.949481, 84.264144)"><g><path d="M 23.242188 0.902344 C 35.257812 0.902344 44.226562 -7.953125 44.226562 -19.742188 C 44.226562 -31.476562 35.257812 -40.332031 23.242188 -40.332031 C 11.167969 -40.332031 2.144531 -31.421875 2.144531 -19.742188 C 2.144531 -8.011719 11.167969 0.902344 23.242188 0.902344 Z M 23.242188 -7.164062 C 16.191406 -7.164062 10.832031 -12.636719 10.832031 -19.742188 C 10.832031 -26.851562 16.191406 -32.265625 23.242188 -32.265625 C 30.292969 -32.265625 35.539062 -26.90625 35.539062 -19.742188 C 35.539062 -12.578125 30.292969 -7.164062 23.242188 -7.164062 Z M 23.242188 -7.164062 "/></g></g></g><g fill="#ab7b60" fill-opacity="0.4"><g transform="translate(91.373131, 84.264144)"><g><path d="M 52.855469 0 L 46.761719 -39.488281 L 38.1875 -39.488281 L 27.472656 -15.230469 L 16.753906 -39.488281 L 8.234375 -39.488281 L 2.03125 0 L 10.71875 0 L 14.609375 -25.722656 L 26.398438 -0.0546875 L 28.488281 -0.0546875 L 40.277344 -25.722656 L 44.167969 0 Z M 52.855469 0 "/></g></g></g><g fill="#ab7b60" fill-opacity="0.4"><g transform="translate(146.370775, 84.264144)"><g><path d="M 13.03125 -7.898438 L 13.03125 -16.019531 L 26.738281 -16.019531 L 26.738281 -23.75 L 13.03125 -23.75 L 13.03125 -31.589844 L 28.203125 -31.589844 L 28.203125 -39.488281 L 4.511719 -39.488281 L 4.511719 0 L 28.824219 0 L 28.824219 -7.898438 Z M 13.03125 -7.898438 "/></g></g></g><g fill="#ab7b60" fill-opacity="1"><g transform="translate(1.447804, 81.770956)"><g><path d="M 27.921875 -39.488281 L 27.921875 -24.257812 L 13.03125 -24.257812 L 13.03125 -39.488281 L 4.511719 -39.488281 L 4.511719 0 L 13.03125 0 L 13.03125 -16.300781 L 27.921875 -16.300781 L 27.921875 0 L 36.441406 0 L 36.441406 -39.488281 Z M 27.921875 -39.488281 "/></g></g></g><g fill="#ab7b60" fill-opacity="1"><g transform="translate(42.456292, 81.770956)"><g><path d="M 23.242188 0.902344 C 35.257812 0.902344 44.226562 -7.953125 44.226562 -19.742188 C 44.226562 -31.476562 35.257812 -40.332031 23.242188 -40.332031 C 11.167969 -40.332031 2.144531 -31.421875 2.144531 -19.742188 C 2.144531 -8.011719 11.167969 0.902344 23.242188 0.902344 Z M 23.242188 -7.164062 C 16.191406 -7.164062 10.832031 -12.636719 10.832031 -19.742188 C 10.832031 -26.851562 16.191406 -32.265625 23.242188 -32.265625 C 30.292969 -32.265625 35.539062 -26.90625 35.539062 -19.742188 C 35.539062 -12.578125 30.292969 -7.164062 23.242188 -7.164062 Z M 23.242188 -7.164062 "/></g></g></g><g fill="#ab7b60" fill-opacity="1"><g transform="translate(88.879943, 81.770956)"><g><path d="M 52.855469 0 L 46.761719 -39.488281 L 38.1875 -39.488281 L 27.472656 -15.230469 L 16.753906 -39.488281 L 8.234375 -39.488281 L 2.03125 0 L 10.71875 0 L 14.609375 -25.722656 L 26.398438 -0.0546875 L 28.488281 -0.0546875 L 40.277344 -25.722656 L 44.167969 0 Z M 52.855469 0 "/></g></g></g><g fill="#ab7b60" fill-opacity="1"><g transform="translate(143.877586, 81.770956)"><g><path d="M 13.03125 -7.898438 L 13.03125 -16.019531 L 26.738281 -16.019531 L 26.738281 -23.75 L 13.03125 -23.75 L 13.03125 -31.589844 L 28.203125 -31.589844 L 28.203125 -39.488281 L 4.511719 -39.488281 L 4.511719 0 L 28.824219 0 L 28.824219 -7.898438 Z M 13.03125 -7.898438 "/></g></g></g><g fill="#222222" fill-opacity="0.302"><g transform="translate(190.975138, 91.345562)"><g><path d="M 18.164062 -34.078125 C 17.910156 -34.183594 17.601562 -34.234375 17.246094 -34.234375 C 14.480469 -34.234375 11.769531 -30.550781 10.542969 -28.503906 C 7.625 -23.742188 2.96875 -14.53125 0.714844 -10.082031 C 0.308594 -9.3125 0 -8.699219 -0.203125 -8.238281 C -2.507812 -3.835938 -6.394531 3.835938 -7.214844 8.902344 C -7.417969 10.4375 -7.316406 11.566406 -6.804688 12.332031 C -6.292969 13.152344 -5.476562 13.355469 -4.554688 13.355469 C 0.308594 13.152344 4.707031 1.484375 5.476562 -3.171875 C 5.832031 -3.121094 6.242188 -3.070312 6.652344 -3.070312 C 10.03125 -3.070312 13.152344 -5.679688 15.300781 -8.035156 C 15.453125 -8.238281 15.453125 -8.546875 15.25 -8.699219 C 15.148438 -8.800781 15.042969 -8.851562 14.890625 -8.851562 C 14.789062 -8.851562 14.6875 -8.800781 14.582031 -8.699219 C 12.640625 -6.601562 9.671875 -4.042969 6.601562 -4.042969 C 6.242188 -4.042969 5.9375 -4.09375 5.679688 -4.144531 C 5.988281 -6.292969 5.832031 -7.675781 5.167969 -8.289062 C 5.015625 -8.441406 4.757812 -8.648438 4.296875 -8.648438 C 4.09375 -8.648438 3.835938 -8.597656 3.582031 -8.496094 C 2.660156 -8.085938 2.199219 -7.316406 2.25 -6.394531 C 2.25 -5.167969 3.222656 -4.042969 4.554688 -3.480469 C 4.195312 -1.6875 3.582031 0.410156 2.8125 2.507812 C 0.5625 8.390625 -2.355469 12.28125 -4.605469 12.382812 C -5.269531 12.382812 -5.730469 12.179688 -5.988281 11.769531 C -6.449219 11.054688 -6.652344 9.160156 -4.914062 4.402344 C -3.785156 1.277344 -1.996094 -2.609375 0.664062 -7.828125 C 0.871094 -8.238281 1.175781 -8.851562 1.585938 -9.671875 C 3.835938 -14.070312 8.441406 -23.28125 11.359375 -27.992188 C 13.765625 -31.929688 15.964844 -33.261719 17.296875 -33.261719 C 17.5 -33.261719 17.652344 -33.210938 17.808594 -33.160156 C 17.859375 -33.109375 17.960938 -33.109375 18.011719 -33.109375 C 18.21875 -33.109375 18.421875 -33.210938 18.472656 -33.414062 C 18.523438 -33.671875 18.421875 -33.976562 18.164062 -34.078125 Z M 3.222656 -6.394531 C 3.171875 -6.90625 3.480469 -7.316406 3.992188 -7.574219 C 4.144531 -7.625 4.246094 -7.675781 4.296875 -7.675781 C 4.402344 -7.675781 4.453125 -7.625 4.503906 -7.574219 C 4.808594 -7.316406 4.964844 -6.34375 4.707031 -4.453125 C 3.734375 -4.964844 3.222656 -5.78125 3.222656 -6.394531 Z M 3.222656 -6.394531 "/></g></g></g><g fill="#222222" fill-opacity="0.302"><g transform="translate(205.557573, 91.345562)"><g><path d="M 20.722656 -8.699219 C 19.136719 -6.601562 14.890625 -1.484375 12.484375 -0.972656 C 12.128906 -0.871094 11.769531 -0.871094 11.460938 -0.871094 C 10.847656 -0.871094 10.335938 -1.023438 10.082031 -1.382812 C 9.210938 -2.507812 10.082031 -5.476562 11.257812 -7.929688 C 11.820312 -8.953125 14.839844 -14.53125 14.890625 -14.636719 C 14.992188 -14.839844 14.941406 -15.148438 14.6875 -15.300781 C 14.582031 -15.351562 14.53125 -15.351562 14.429688 -15.351562 C 14.277344 -15.351562 14.125 -15.25 14.019531 -15.09375 C 13.613281 -14.429688 13.203125 -13.613281 12.742188 -12.742188 C 10.335938 -8.289062 6.703125 -1.535156 2.609375 -0.921875 C 2.300781 -0.871094 2.046875 -0.871094 1.789062 -0.871094 C 0.871094 -0.871094 0.253906 -1.125 -0.101562 -1.636719 C -1.023438 -2.917969 -0.359375 -5.78125 0.714844 -7.929688 C 1.226562 -8.902344 2.507812 -11.410156 4.195312 -14.53125 C 4.296875 -14.789062 4.195312 -15.042969 3.992188 -15.199219 C 3.890625 -15.25 3.835938 -15.25 3.734375 -15.25 C 3.582031 -15.25 3.378906 -15.148438 3.324219 -14.992188 C 1.636719 -11.871094 0.359375 -9.363281 -0.152344 -8.339844 C -0.765625 -7.164062 -1.175781 -5.832031 -1.382812 -4.65625 C -1.636719 -3.121094 -1.484375 -1.894531 -0.871094 -1.074219 C -0.359375 -0.308594 0.5625 0.101562 1.789062 0.101562 C 4.914062 0.101562 7.214844 -2.355469 9.007812 -4.65625 C 8.648438 -3.222656 8.597656 -1.738281 9.3125 -0.765625 C 9.773438 -0.152344 10.488281 0.152344 11.460938 0.152344 C 11.820312 0.152344 12.230469 0.101562 12.640625 0 C 15.25 -0.511719 18.164062 -4.09375 20.980469 -7.523438 C 21.183594 -7.675781 21.339844 -7.878906 21.492188 -8.085938 C 21.644531 -8.289062 21.644531 -8.597656 21.390625 -8.75 C 21.289062 -8.851562 21.183594 -8.902344 21.082031 -8.902344 C 20.929688 -8.902344 20.828125 -8.800781 20.722656 -8.699219 Z M 20.722656 -8.699219 "/></g></g></g><g fill="#222222" fill-opacity="0.302"><g transform="translate(226.27998, 91.345562)"><g><path d="M 15.042969 -8.75 C 14.941406 -8.800781 14.839844 -8.851562 14.738281 -8.851562 C 14.582031 -8.851562 14.429688 -8.800781 14.328125 -8.699219 C 12.230469 -6.140625 8.441406 -2.96875 4.707031 -1.484375 C 5.730469 -2.609375 6.5 -4.246094 6.960938 -6.34375 C 7.574219 -9.261719 6.601562 -12.640625 5.679688 -15.042969 C 6.089844 -15.660156 6.804688 -16.886719 7.472656 -18.269531 C 8.851562 -21.03125 9.363281 -23.078125 8.953125 -24.359375 C 8.699219 -25.328125 7.777344 -25.839844 6.804688 -25.839844 C 4.707031 -25.839844 3.480469 -23.691406 3.121094 -21.851562 C 2.867188 -20.46875 3.019531 -18.984375 3.53125 -17.601562 C 3.632812 -17.398438 3.734375 -17.140625 3.890625 -16.785156 C 4.09375 -16.375 4.296875 -15.8125 4.554688 -15.09375 C 3.734375 -13.816406 2.25 -11.460938 -0.101562 -8.546875 C -0.308594 -8.339844 -0.253906 -8.035156 -0.0507812 -7.828125 C -0.0507812 -7.828125 0.0507812 -7.777344 0.203125 -7.777344 C 0.359375 -7.777344 0.511719 -7.828125 0.613281 -7.929688 C 2.710938 -10.488281 4.144531 -12.640625 5.015625 -13.96875 C 5.78125 -11.769531 6.5 -8.953125 5.988281 -6.550781 C 5.21875 -2.96875 3.378906 -0.820312 1.023438 -0.820312 C 0 -0.871094 -0.820312 -1.125 -1.277344 -1.636719 C -1.6875 -2.148438 -1.738281 -2.761719 -1.332031 -3.582031 C -1.226562 -3.785156 -1.332031 -4.09375 -1.535156 -4.195312 C -1.636719 -4.246094 -1.6875 -4.246094 -1.789062 -4.246094 C -1.945312 -4.246094 -2.148438 -4.144531 -2.199219 -3.992188 C -2.761719 -2.867188 -2.710938 -1.789062 -1.996094 -1.023438 C -1.332031 -0.203125 -0.0507812 0.203125 1.382812 0.203125 C 6.140625 0.203125 12.28125 -4.605469 15.09375 -8.035156 C 15.300781 -8.238281 15.25 -8.597656 15.042969 -8.75 Z M 4.757812 -17.195312 C 4.65625 -17.5 4.503906 -17.808594 4.453125 -17.960938 C 3.480469 -20.570312 4.195312 -23.128906 5.371094 -24.253906 C 5.679688 -24.511719 6.140625 -24.871094 6.753906 -24.871094 C 6.960938 -24.871094 7.214844 -24.816406 7.417969 -24.714844 C 7.726562 -24.613281 7.929688 -24.410156 8.035156 -24.050781 C 8.546875 -22.3125 6.550781 -18.421875 5.21875 -16.171875 C 5.066406 -16.578125 4.914062 -16.886719 4.757812 -17.195312 Z M 4.757812 -17.195312 "/></g></g></g><g fill="#222222" fill-opacity="0.302"><g transform="translate(240.65775, 91.345562)"><g><path d="M 11.769531 -8.75 C 11.667969 -8.800781 11.566406 -8.851562 11.460938 -8.851562 C 11.308594 -8.851562 11.207031 -8.800781 11.105469 -8.699219 C 7.265625 -4.195312 3.941406 -1.382812 1.894531 -0.972656 C 1.535156 -0.871094 1.175781 -0.871094 0.871094 -0.871094 C 0.253906 -0.871094 -0.203125 -1.023438 -0.460938 -1.382812 C -1.332031 -2.507812 -0.511719 -5.476562 0.714844 -7.878906 C 1.226562 -8.953125 4.296875 -14.53125 4.296875 -14.582031 C 4.453125 -14.839844 4.347656 -15.148438 4.144531 -15.25 C 4.042969 -15.300781 3.992188 -15.300781 3.890625 -15.300781 C 3.683594 -15.300781 3.53125 -15.25 3.429688 -15.09375 C 3.324219 -14.839844 0.359375 -9.414062 -0.152344 -8.339844 C -0.820312 -7.0625 -2.761719 -2.761719 -1.226562 -0.765625 C -0.765625 -0.152344 -0.0507812 0.152344 0.871094 0.152344 C 4.757812 0.152344 9.519531 -5.269531 11.820312 -8.035156 C 12.023438 -8.238281 11.972656 -8.546875 11.769531 -8.75 Z M 4.964844 -17.089844 C 5.015625 -17.089844 5.117188 -17.039062 5.167969 -17.039062 C 5.371094 -17.039062 5.527344 -17.140625 5.628906 -17.347656 L 6.34375 -18.730469 C 6.449219 -18.933594 6.394531 -19.242188 6.140625 -19.34375 C 6.039062 -19.394531 5.988281 -19.394531 5.882812 -19.394531 C 5.730469 -19.394531 5.527344 -19.292969 5.476562 -19.136719 L 4.757812 -17.757812 C 4.605469 -17.550781 4.707031 -17.246094 4.964844 -17.089844 Z M 4.964844 -17.089844 "/></g></g></g><g fill="#222222" fill-opacity="0.302"><g transform="translate(251.760867, 91.345562)"><g><path d="M 22.003906 -8.75 C 21.902344 -8.800781 21.746094 -8.851562 21.644531 -8.851562 C 21.492188 -8.851562 21.390625 -8.800781 21.289062 -8.699219 C 19.445312 -6.34375 16.886719 -5.015625 14.277344 -5.015625 C 13.304688 -5.015625 12.332031 -5.21875 11.460938 -5.578125 C 13.253906 -8.339844 14.429688 -12.535156 11.207031 -14.53125 C 10.644531 -14.839844 10.082031 -15.042969 9.519531 -15.09375 C 9.3125 -15.300781 9.007812 -15.453125 8.699219 -15.554688 C 8.441406 -15.660156 8.1875 -15.710938 7.828125 -15.710938 C 3.941406 -15.710938 -0.613281 -8.902344 -1.074219 -5.578125 C -1.332031 -4.042969 -1.125 -2.710938 -0.511719 -1.6875 C 0.253906 -0.511719 1.484375 0.101562 3.019531 0.101562 C 6.140625 0.101562 9.007812 -2.40625 10.898438 -4.757812 C 11.921875 -4.246094 13.101562 -4.042969 14.328125 -4.042969 C 17.195312 -4.042969 20.007812 -5.527344 22.054688 -8.085938 C 22.207031 -8.289062 22.207031 -8.597656 22.003906 -8.75 Z M 3.019531 -0.921875 C 1.789062 -0.921875 0.921875 -1.382812 0.359375 -2.25 C -0.152344 -3.019531 -0.308594 -4.144531 -0.101562 -5.425781 C 0.359375 -8.546875 3.273438 -12.382812 5.78125 -13.96875 C 6.550781 -14.480469 7.214844 -14.738281 7.777344 -14.738281 C 7.878906 -14.738281 7.984375 -14.738281 8.085938 -14.6875 C 7.878906 -14.582031 7.675781 -14.378906 7.523438 -14.175781 C 5.78125 -12.179688 6.601562 -8.75 8.085938 -6.960938 C 8.648438 -6.292969 9.3125 -5.679688 10.03125 -5.21875 C 8.390625 -3.121094 5.832031 -0.921875 3.019531 -0.921875 Z M 10.59375 -6.039062 C 9.925781 -6.449219 9.363281 -6.960938 8.851562 -7.574219 C 7.164062 -9.621094 7.214844 -12.382812 8.238281 -13.558594 C 8.496094 -13.816406 8.800781 -14.019531 9.160156 -14.070312 C 9.722656 -13.355469 10.03125 -12.128906 9.925781 -10.746094 C 9.875 -10.4375 10.082031 -10.234375 10.386719 -10.183594 C 10.644531 -10.183594 10.898438 -10.386719 10.898438 -10.644531 C 11 -11.871094 10.796875 -12.945312 10.4375 -13.816406 C 10.542969 -13.765625 10.59375 -13.714844 10.695312 -13.664062 C 13.558594 -11.972656 11.921875 -8.035156 10.59375 -6.039062 Z M 10.59375 -6.039062 "/></g></g></g><g fill="#222222" fill-opacity="0.302"><g transform="translate(273.046102, 91.345562)"><g><path d="M 23.179688 -8.75 C 23.078125 -8.800781 22.976562 -8.851562 22.875 -8.851562 C 22.71875 -8.851562 22.617188 -8.800781 22.515625 -8.699219 C 18.933594 -4.503906 15.402344 -1.535156 13.304688 -0.972656 C 13.046875 -0.871094 12.742188 -0.820312 12.433594 -0.820312 C 11.972656 -0.820312 11.511719 -0.972656 11.15625 -1.332031 C 10.386719 -2.199219 10.488281 -4.042969 11.308594 -6.089844 C 11.617188 -6.855469 12.023438 -7.675781 12.433594 -8.496094 C 13.714844 -11.105469 14.890625 -13.558594 13.96875 -14.839844 C 13.664062 -15.300781 13.046875 -15.554688 12.28125 -15.554688 C 12.023438 -15.554688 11.820312 -15.554688 11.566406 -15.503906 C 7.417969 -14.941406 3.890625 -11.820312 1.175781 -8.851562 C 2.097656 -10.488281 3.121094 -12.382812 4.296875 -14.429688 C 4.402344 -14.636719 4.347656 -14.941406 4.09375 -15.09375 C 3.992188 -15.148438 3.941406 -15.148438 3.835938 -15.148438 C 3.683594 -15.148438 3.480469 -15.042969 3.429688 -14.890625 C 0.664062 -9.976562 -4.042969 -1.484375 -4.757812 0 C -4.914062 0.253906 -4.808594 0.5625 -4.554688 0.664062 C -4.503906 0.714844 -4.402344 0.714844 -4.347656 0.714844 C -4.144531 0.714844 -3.992188 0.613281 -3.890625 0.460938 C -3.890625 0.359375 -3.683594 0.101562 -3.632812 0.0507812 C -1.175781 -5.425781 5.476562 -13.664062 11.71875 -14.53125 C 11.921875 -14.53125 12.128906 -14.582031 12.332031 -14.582031 C 12.691406 -14.582031 13.046875 -14.53125 13.203125 -14.277344 C 13.355469 -14.070312 13.457031 -13.558594 13.046875 -12.28125 C 12.691406 -11.308594 12.128906 -10.082031 11.566406 -8.953125 C 11.15625 -8.085938 10.746094 -7.265625 10.386719 -6.5 C 9.363281 -4.042969 9.414062 -1.84375 10.4375 -0.664062 C 10.898438 -0.101562 11.617188 0.152344 12.433594 0.152344 C 15.964844 0.152344 21.082031 -5.476562 23.230469 -8.035156 C 23.4375 -8.238281 23.386719 -8.546875 23.179688 -8.75 Z M 23.179688 -8.75 "/></g></g></g><g fill="#222222" fill-opacity="0.502"><g transform="translate(189.720844, 89.414119)"><g><path d="M 18.164062 -34.078125 C 17.910156 -34.183594 17.601562 -34.234375 17.246094 -34.234375 C 14.480469 -34.234375 11.769531 -30.550781 10.542969 -28.503906 C 7.625 -23.742188 2.96875 -14.53125 0.714844 -10.082031 C 0.308594 -9.3125 0 -8.699219 -0.203125 -8.238281 C -2.507812 -3.835938 -6.394531 3.835938 -7.214844 8.902344 C -7.417969 10.4375 -7.316406 11.566406 -6.804688 12.332031 C -6.292969 13.152344 -5.476562 13.355469 -4.554688 13.355469 C 0.308594 13.152344 4.707031 1.484375 5.476562 -3.171875 C 5.832031 -3.121094 6.242188 -3.070312 6.652344 -3.070312 C 10.03125 -3.070312 13.152344 -5.679688 15.300781 -8.035156 C 15.453125 -8.238281 15.453125 -8.546875 15.25 -8.699219 C 15.148438 -8.800781 15.042969 -8.851562 14.890625 -8.851562 C 14.789062 -8.851562 14.6875 -8.800781 14.582031 -8.699219 C 12.640625 -6.601562 9.671875 -4.042969 6.601562 -4.042969 C 6.242188 -4.042969 5.9375 -4.09375 5.679688 -4.144531 C 5.988281 -6.292969 5.832031 -7.675781 5.167969 -8.289062 C 5.015625 -8.441406 4.757812 -8.648438 4.296875 -8.648438 C 4.09375 -8.648438 3.835938 -8.597656 3.582031 -8.496094 C 2.660156 -8.085938 2.199219 -7.316406 2.25 -6.394531 C 2.25 -5.167969 3.222656 -4.042969 4.554688 -3.480469 C 4.195312 -1.6875 3.582031 0.410156 2.8125 2.507812 C 0.5625 8.390625 -2.355469 12.28125 -4.605469 12.382812 C -5.269531 12.382812 -5.730469 12.179688 -5.988281 11.769531 C -6.449219 11.054688 -6.652344 9.160156 -4.914062 4.402344 C -3.785156 1.277344 -1.996094 -2.609375 0.664062 -7.828125 C 0.871094 -8.238281 1.175781 -8.851562 1.585938 -9.671875 C 3.835938 -14.070312 8.441406 -23.28125 11.359375 -27.992188 C 13.765625 -31.929688 15.964844 -33.261719 17.296875 -33.261719 C 17.5 -33.261719 17.652344 -33.210938 17.808594 -33.160156 C 17.859375 -33.109375 17.960938 -33.109375 18.011719 -33.109375 C 18.21875 -33.109375 18.421875 -33.210938 18.472656 -33.414062 C 18.523438 -33.671875 18.421875 -33.976562 18.164062 -34.078125 Z M 3.222656 -6.394531 C 3.171875 -6.90625 3.480469 -7.316406 3.992188 -7.574219 C 4.144531 -7.625 4.246094 -7.675781 4.296875 -7.675781 C 4.402344 -7.675781 4.453125 -7.625 4.503906 -7.574219 C 4.808594 -7.316406 4.964844 -6.34375 4.707031 -4.453125 C 3.734375 -4.964844 3.222656 -5.78125 3.222656 -6.394531 Z M 3.222656 -6.394531 "/></g></g></g><g fill="#222222" fill-opacity="0.502"><g transform="translate(204.30328, 89.414119)"><g><path d="M 20.722656 -8.699219 C 19.136719 -6.601562 14.890625 -1.484375 12.484375 -0.972656 C 12.128906 -0.871094 11.769531 -0.871094 11.460938 -0.871094 C 10.847656 -0.871094 10.335938 -1.023438 10.082031 -1.382812 C 9.210938 -2.507812 10.082031 -5.476562 11.257812 -7.929688 C 11.820312 -8.953125 14.839844 -14.53125 14.890625 -14.636719 C 14.992188 -14.839844 14.941406 -15.148438 14.6875 -15.300781 C 14.582031 -15.351562 14.53125 -15.351562 14.429688 -15.351562 C 14.277344 -15.351562 14.125 -15.25 14.019531 -15.09375 C 13.613281 -14.429688 13.203125 -13.613281 12.742188 -12.742188 C 10.335938 -8.289062 6.703125 -1.535156 2.609375 -0.921875 C 2.300781 -0.871094 2.046875 -0.871094 1.789062 -0.871094 C 0.871094 -0.871094 0.253906 -1.125 -0.101562 -1.636719 C -1.023438 -2.917969 -0.359375 -5.78125 0.714844 -7.929688 C 1.226562 -8.902344 2.507812 -11.410156 4.195312 -14.53125 C 4.296875 -14.789062 4.195312 -15.042969 3.992188 -15.199219 C 3.890625 -15.25 3.835938 -15.25 3.734375 -15.25 C 3.582031 -15.25 3.378906 -15.148438 3.324219 -14.992188 C 1.636719 -11.871094 0.359375 -9.363281 -0.152344 -8.339844 C -0.765625 -7.164062 -1.175781 -5.832031 -1.382812 -4.65625 C -1.636719 -3.121094 -1.484375 -1.894531 -0.871094 -1.074219 C -0.359375 -0.308594 0.5625 0.101562 1.789062 0.101562 C 4.914062 0.101562 7.214844 -2.355469 9.007812 -4.65625 C 8.648438 -3.222656 8.597656 -1.738281 9.3125 -0.765625 C 9.773438 -0.152344 10.488281 0.152344 11.460938 0.152344 C 11.820312 0.152344 12.230469 0.101562 12.640625 0 C 15.25 -0.511719 18.164062 -4.09375 20.980469 -7.523438 C 21.183594 -7.675781 21.339844 -7.878906 21.492188 -8.085938 C 21.644531 -8.289062 21.644531 -8.597656 21.390625 -8.75 C 21.289062 -8.851562 21.183594 -8.902344 21.082031 -8.902344 C 20.929688 -8.902344 20.828125 -8.800781 20.722656 -8.699219 Z M 20.722656 -8.699219 "/></g></g></g><g fill="#222222" fill-opacity="0.502"><g transform="translate(225.025687, 89.414119)"><g><path d="M 15.042969 -8.75 C 14.941406 -8.800781 14.839844 -8.851562 14.738281 -8.851562 C 14.582031 -8.851562 14.429688 -8.800781 14.328125 -8.699219 C 12.230469 -6.140625 8.441406 -2.96875 4.707031 -1.484375 C 5.730469 -2.609375 6.5 -4.246094 6.960938 -6.34375 C 7.574219 -9.261719 6.601562 -12.640625 5.679688 -15.042969 C 6.089844 -15.660156 6.804688 -16.886719 7.472656 -18.269531 C 8.851562 -21.03125 9.363281 -23.078125 8.953125 -24.359375 C 8.699219 -25.328125 7.777344 -25.839844 6.804688 -25.839844 C 4.707031 -25.839844 3.480469 -23.691406 3.121094 -21.851562 C 2.867188 -20.46875 3.019531 -18.984375 3.53125 -17.601562 C 3.632812 -17.398438 3.734375 -17.140625 3.890625 -16.785156 C 4.09375 -16.375 4.296875 -15.8125 4.554688 -15.09375 C 3.734375 -13.816406 2.25 -11.460938 -0.101562 -8.546875 C -0.308594 -8.339844 -0.253906 -8.035156 -0.0507812 -7.828125 C -0.0507812 -7.828125 0.0507812 -7.777344 0.203125 -7.777344 C 0.359375 -7.777344 0.511719 -7.828125 0.613281 -7.929688 C 2.710938 -10.488281 4.144531 -12.640625 5.015625 -13.96875 C 5.78125 -11.769531 6.5 -8.953125 5.988281 -6.550781 C 5.21875 -2.96875 3.378906 -0.820312 1.023438 -0.820312 C 0 -0.871094 -0.820312 -1.125 -1.277344 -1.636719 C -1.6875 -2.148438 -1.738281 -2.761719 -1.332031 -3.582031 C -1.226562 -3.785156 -1.332031 -4.09375 -1.535156 -4.195312 C -1.636719 -4.246094 -1.6875 -4.246094 -1.789062 -4.246094 C -1.945312 -4.246094 -2.148438 -4.144531 -2.199219 -3.992188 C -2.761719 -2.867188 -2.710938 -1.789062 -1.996094 -1.023438 C -1.332031 -0.203125 -0.0507812 0.203125 1.382812 0.203125 C 6.140625 0.203125 12.28125 -4.605469 15.09375 -8.035156 C 15.300781 -8.238281 15.25 -8.597656 15.042969 -8.75 Z M 4.757812 -17.195312 C 4.65625 -17.5 4.503906 -17.808594 4.453125 -17.960938 C 3.480469 -20.570312 4.195312 -23.128906 5.371094 -24.253906 C 5.679688 -24.511719 6.140625 -24.871094 6.753906 -24.871094 C 6.960938 -24.871094 7.214844 -24.816406 7.417969 -24.714844 C 7.726562 -24.613281 7.929688 -24.410156 8.035156 -24.050781 C 8.546875 -22.3125 6.550781 -18.421875 5.21875 -16.171875 C 5.066406 -16.578125 4.914062 -16.886719 4.757812 -17.195312 Z M 4.757812 -17.195312 "/></g></g></g><g fill="#222222" fill-opacity="0.502"><g transform="translate(239.403456, 89.414119)"><g><path d="M 11.769531 -8.75 C 11.667969 -8.800781 11.566406 -8.851562 11.460938 -8.851562 C 11.308594 -8.851562 11.207031 -8.800781 11.105469 -8.699219 C 7.265625 -4.195312 3.941406 -1.382812 1.894531 -0.972656 C 1.535156 -0.871094 1.175781 -0.871094 0.871094 -0.871094 C 0.253906 -0.871094 -0.203125 -1.023438 -0.460938 -1.382812 C -1.332031 -2.507812 -0.511719 -5.476562 0.714844 -7.878906 C 1.226562 -8.953125 4.296875 -14.53125 4.296875 -14.582031 C 4.453125 -14.839844 4.347656 -15.148438 4.144531 -15.25 C 4.042969 -15.300781 3.992188 -15.300781 3.890625 -15.300781 C 3.683594 -15.300781 3.53125 -15.25 3.429688 -15.09375 C 3.324219 -14.839844 0.359375 -9.414062 -0.152344 -8.339844 C -0.820312 -7.0625 -2.761719 -2.761719 -1.226562 -0.765625 C -0.765625 -0.152344 -0.0507812 0.152344 0.871094 0.152344 C 4.757812 0.152344 9.519531 -5.269531 11.820312 -8.035156 C 12.023438 -8.238281 11.972656 -8.546875 11.769531 -8.75 Z M 4.964844 -17.089844 C 5.015625 -17.089844 5.117188 -17.039062 5.167969 -17.039062 C 5.371094 -17.039062 5.527344 -17.140625 5.628906 -17.347656 L 6.34375 -18.730469 C 6.449219 -18.933594 6.394531 -19.242188 6.140625 -19.34375 C 6.039062 -19.394531 5.988281 -19.394531 5.882812 -19.394531 C 5.730469 -19.394531 5.527344 -19.292969 5.476562 -19.136719 L 4.757812 -17.757812 C 4.605469 -17.550781 4.707031 -17.246094 4.964844 -17.089844 Z M 4.964844 -17.089844 "/></g></g></g><g fill="#222222" fill-opacity="0.502"><g transform="translate(250.506574, 89.414119)"><g><path d="M 22.003906 -8.75 C 21.902344 -8.800781 21.746094 -8.851562 21.644531 -8.851562 C 21.492188 -8.851562 21.390625 -8.800781 21.289062 -8.699219 C 19.445312 -6.34375 16.886719 -5.015625 14.277344 -5.015625 C 13.304688 -5.015625 12.332031 -5.21875 11.460938 -5.578125 C 13.253906 -8.339844 14.429688 -12.535156 11.207031 -14.53125 C 10.644531 -14.839844 10.082031 -15.042969 9.519531 -15.09375 C 9.3125 -15.300781 9.007812 -15.453125 8.699219 -15.554688 C 8.441406 -15.660156 8.1875 -15.710938 7.828125 -15.710938 C 3.941406 -15.710938 -0.613281 -8.902344 -1.074219 -5.578125 C -1.332031 -4.042969 -1.125 -2.710938 -0.511719 -1.6875 C 0.253906 -0.511719 1.484375 0.101562 3.019531 0.101562 C 6.140625 0.101562 9.007812 -2.40625 10.898438 -4.757812 C 11.921875 -4.246094 13.101562 -4.042969 14.328125 -4.042969 C 17.195312 -4.042969 20.007812 -5.527344 22.054688 -8.085938 C 22.207031 -8.289062 22.207031 -8.597656 22.003906 -8.75 Z M 3.019531 -0.921875 C 1.789062 -0.921875 0.921875 -1.382812 0.359375 -2.25 C -0.152344 -3.019531 -0.308594 -4.144531 -0.101562 -5.425781 C 0.359375 -8.546875 3.273438 -12.382812 5.78125 -13.96875 C 6.550781 -14.480469 7.214844 -14.738281 7.777344 -14.738281 C 7.878906 -14.738281 7.984375 -14.738281 8.085938 -14.6875 C 7.878906 -14.582031 7.675781 -14.378906 7.523438 -14.175781 C 5.78125 -12.179688 6.601562 -8.75 8.085938 -6.960938 C 8.648438 -6.292969 9.3125 -5.679688 10.03125 -5.21875 C 8.390625 -3.121094 5.832031 -0.921875 3.019531 -0.921875 Z M 10.59375 -6.039062 C 9.925781 -6.449219 9.363281 -6.960938 8.851562 -7.574219 C 7.164062 -9.621094 7.214844 -12.382812 8.238281 -13.558594 C 8.496094 -13.816406 8.800781 -14.019531 9.160156 -14.070312 C 9.722656 -13.355469 10.03125 -12.128906 9.925781 -10.746094 C 9.875 -10.4375 10.082031 -10.234375 10.386719 -10.183594 C 10.644531 -10.183594 10.898438 -10.386719 10.898438 -10.644531 C 11 -11.871094 10.796875 -12.945312 10.4375 -13.816406 C 10.542969 -13.765625 10.59375 -13.714844 10.695312 -13.664062 C 13.558594 -11.972656 11.921875 -8.035156 10.59375 -6.039062 Z M 10.59375 -6.039062 "/></g></g></g><g fill="#222222" fill-opacity="0.502"><g transform="translate(271.791809, 89.414119)"><g><path d="M 23.179688 -8.75 C 23.078125 -8.800781 22.976562 -8.851562 22.875 -8.851562 C 22.71875 -8.851562 22.617188 -8.800781 22.515625 -8.699219 C 18.933594 -4.503906 15.402344 -1.535156 13.304688 -0.972656 C 13.046875 -0.871094 12.742188 -0.820312 12.433594 -0.820312 C 11.972656 -0.820312 11.511719 -0.972656 11.15625 -1.332031 C 10.386719 -2.199219 10.488281 -4.042969 11.308594 -6.089844 C 11.617188 -6.855469 12.023438 -7.675781 12.433594 -8.496094 C 13.714844 -11.105469 14.890625 -13.558594 13.96875 -14.839844 C 13.664062 -15.300781 13.046875 -15.554688 12.28125 -15.554688 C 12.023438 -15.554688 11.820312 -15.554688 11.566406 -15.503906 C 7.417969 -14.941406 3.890625 -11.820312 1.175781 -8.851562 C 2.097656 -10.488281 3.121094 -12.382812 4.296875 -14.429688 C 4.402344 -14.636719 4.347656 -14.941406 4.09375 -15.09375 C 3.992188 -15.148438 3.941406 -15.148438 3.835938 -15.148438 C 3.683594 -15.148438 3.480469 -15.042969 3.429688 -14.890625 C 0.664062 -9.976562 -4.042969 -1.484375 -4.757812 0 C -4.914062 0.253906 -4.808594 0.5625 -4.554688 0.664062 C -4.503906 0.714844 -4.402344 0.714844 -4.347656 0.714844 C -4.144531 0.714844 -3.992188 0.613281 -3.890625 0.460938 C -3.890625 0.359375 -3.683594 0.101562 -3.632812 0.0507812 C -1.175781 -5.425781 5.476562 -13.664062 11.71875 -14.53125 C 11.921875 -14.53125 12.128906 -14.582031 12.332031 -14.582031 C 12.691406 -14.582031 13.046875 -14.53125 13.203125 -14.277344 C 13.355469 -14.070312 13.457031 -13.558594 13.046875 -12.28125 C 12.691406 -11.308594 12.128906 -10.082031 11.566406 -8.953125 C 11.15625 -8.085938 10.746094 -7.265625 10.386719 -6.5 C 9.363281 -4.042969 9.414062 -1.84375 10.4375 -0.664062 C 10.898438 -0.101562 11.617188 0.152344 12.433594 0.152344 C 15.964844 0.152344 21.082031 -5.476562 23.230469 -8.035156 C 23.4375 -8.238281 23.386719 -8.546875 23.179688 -8.75 Z M 23.179688 -8.75 "/></g></g></g><g fill="#222222" fill-opacity="1"><g transform="translate(188.466551, 87.482671)"><g><path d="M 18.164062 -34.078125 C 17.910156 -34.183594 17.601562 -34.234375 17.246094 -34.234375 C 14.480469 -34.234375 11.769531 -30.550781 10.542969 -28.503906 C 7.625 -23.742188 2.96875 -14.53125 0.714844 -10.082031 C 0.308594 -9.3125 0 -8.699219 -0.203125 -8.238281 C -2.507812 -3.835938 -6.394531 3.835938 -7.214844 8.902344 C -7.417969 10.4375 -7.316406 11.566406 -6.804688 12.332031 C -6.292969 13.152344 -5.476562 13.355469 -4.554688 13.355469 C 0.308594 13.152344 4.707031 1.484375 5.476562 -3.171875 C 5.832031 -3.121094 6.242188 -3.070312 6.652344 -3.070312 C 10.03125 -3.070312 13.152344 -5.679688 15.300781 -8.035156 C 15.453125 -8.238281 15.453125 -8.546875 15.25 -8.699219 C 15.148438 -8.800781 15.042969 -8.851562 14.890625 -8.851562 C 14.789062 -8.851562 14.6875 -8.800781 14.582031 -8.699219 C 12.640625 -6.601562 9.671875 -4.042969 6.601562 -4.042969 C 6.242188 -4.042969 5.9375 -4.09375 5.679688 -4.144531 C 5.988281 -6.292969 5.832031 -7.675781 5.167969 -8.289062 C 5.015625 -8.441406 4.757812 -8.648438 4.296875 -8.648438 C 4.09375 -8.648438 3.835938 -8.597656 3.582031 -8.496094 C 2.660156 -8.085938 2.199219 -7.316406 2.25 -6.394531 C 2.25 -5.167969 3.222656 -4.042969 4.554688 -3.480469 C 4.195312 -1.6875 3.582031 0.410156 2.8125 2.507812 C 0.5625 8.390625 -2.355469 12.28125 -4.605469 12.382812 C -5.269531 12.382812 -5.730469 12.179688 -5.988281 11.769531 C -6.449219 11.054688 -6.652344 9.160156 -4.914062 4.402344 C -3.785156 1.277344 -1.996094 -2.609375 0.664062 -7.828125 C 0.871094 -8.238281 1.175781 -8.851562 1.585938 -9.671875 C 3.835938 -14.070312 8.441406 -23.28125 11.359375 -27.992188 C 13.765625 -31.929688 15.964844 -33.261719 17.296875 -33.261719 C 17.5 -33.261719 17.652344 -33.210938 17.808594 -33.160156 C 17.859375 -33.109375 17.960938 -33.109375 18.011719 -33.109375 C 18.21875 -33.109375 18.421875 -33.210938 18.472656 -33.414062 C 18.523438 -33.671875 18.421875 -33.976562 18.164062 -34.078125 Z M 3.222656 -6.394531 C 3.171875 -6.90625 3.480469 -7.316406 3.992188 -7.574219 C 4.144531 -7.625 4.246094 -7.675781 4.296875 -7.675781 C 4.402344 -7.675781 4.453125 -7.625 4.503906 -7.574219 C 4.808594 -7.316406 4.964844 -6.34375 4.707031 -4.453125 C 3.734375 -4.964844 3.222656 -5.78125 3.222656 -6.394531 Z M 3.222656 -6.394531 "/></g></g></g><g fill="#222222" fill-opacity="1"><g transform="translate(203.048987, 87.482671)"><g><path d="M 20.722656 -8.699219 C 19.136719 -6.601562 14.890625 -1.484375 12.484375 -0.972656 C 12.128906 -0.871094 11.769531 -0.871094 11.460938 -0.871094 C 10.847656 -0.871094 10.335938 -1.023438 10.082031 -1.382812 C 9.210938 -2.507812 10.082031 -5.476562 11.257812 -7.929688 C 11.820312 -8.953125 14.839844 -14.53125 14.890625 -14.636719 C 14.992188 -14.839844 14.941406 -15.148438 14.6875 -15.300781 C 14.582031 -15.351562 14.53125 -15.351562 14.429688 -15.351562 C 14.277344 -15.351562 14.125 -15.25 14.019531 -15.09375 C 13.613281 -14.429688 13.203125 -13.613281 12.742188 -12.742188 C 10.335938 -8.289062 6.703125 -1.535156 2.609375 -0.921875 C 2.300781 -0.871094 2.046875 -0.871094 1.789062 -0.871094 C 0.871094 -0.871094 0.253906 -1.125 -0.101562 -1.636719 C -1.023438 -2.917969 -0.359375 -5.78125 0.714844 -7.929688 C 1.226562 -8.902344 2.507812 -11.410156 4.195312 -14.53125 C 4.296875 -14.789062 4.195312 -15.042969 3.992188 -15.199219 C 3.890625 -15.25 3.835938 -15.25 3.734375 -15.25 C 3.582031 -15.25 3.378906 -15.148438 3.324219 -14.992188 C 1.636719 -11.871094 0.359375 -9.363281 -0.152344 -8.339844 C -0.765625 -7.164062 -1.175781 -5.832031 -1.382812 -4.65625 C -1.636719 -3.121094 -1.484375 -1.894531 -0.871094 -1.074219 C -0.359375 -0.308594 0.5625 0.101562 1.789062 0.101562 C 4.914062 0.101562 7.214844 -2.355469 9.007812 -4.65625 C 8.648438 -3.222656 8.597656 -1.738281 9.3125 -0.765625 C 9.773438 -0.152344 10.488281 0.152344 11.460938 0.152344 C 11.820312 0.152344 12.230469 0.101562 12.640625 0 C 15.25 -0.511719 18.164062 -4.09375 20.980469 -7.523438 C 21.183594 -7.675781 21.339844 -7.878906 21.492188 -8.085938 C 21.644531 -8.289062 21.644531 -8.597656 21.390625 -8.75 C 21.289062 -8.851562 21.183594 -8.902344 21.082031 -8.902344 C 20.929688 -8.902344 20.828125 -8.800781 20.722656 -8.699219 Z M 20.722656 -8.699219 "/></g></g></g><g fill="#222222" fill-opacity="1"><g transform="translate(223.771393, 87.482671)"><g><path d="M 15.042969 -8.75 C 14.941406 -8.800781 14.839844 -8.851562 14.738281 -8.851562 C 14.582031 -8.851562 14.429688 -8.800781 14.328125 -8.699219 C 12.230469 -6.140625 8.441406 -2.96875 4.707031 -1.484375 C 5.730469 -2.609375 6.5 -4.246094 6.960938 -6.34375 C 7.574219 -9.261719 6.601562 -12.640625 5.679688 -15.042969 C 6.089844 -15.660156 6.804688 -16.886719 7.472656 -18.269531 C 8.851562 -21.03125 9.363281 -23.078125 8.953125 -24.359375 C 8.699219 -25.328125 7.777344 -25.839844 6.804688 -25.839844 C 4.707031 -25.839844 3.480469 -23.691406 3.121094 -21.851562 C 2.867188 -20.46875 3.019531 -18.984375 3.53125 -17.601562 C 3.632812 -17.398438 3.734375 -17.140625 3.890625 -16.785156 C 4.09375 -16.375 4.296875 -15.8125 4.554688 -15.09375 C 3.734375 -13.816406 2.25 -11.460938 -0.101562 -8.546875 C -0.308594 -8.339844 -0.253906 -8.035156 -0.0507812 -7.828125 C -0.0507812 -7.828125 0.0507812 -7.777344 0.203125 -7.777344 C 0.359375 -7.777344 0.511719 -7.828125 0.613281 -7.929688 C 2.710938 -10.488281 4.144531 -12.640625 5.015625 -13.96875 C 5.78125 -11.769531 6.5 -8.953125 5.988281 -6.550781 C 5.21875 -2.96875 3.378906 -0.820312 1.023438 -0.820312 C 0 -0.871094 -0.820312 -1.125 -1.277344 -1.636719 C -1.6875 -2.148438 -1.738281 -2.761719 -1.332031 -3.582031 C -1.226562 -3.785156 -1.332031 -4.09375 -1.535156 -4.195312 C -1.636719 -4.246094 -1.6875 -4.246094 -1.789062 -4.246094 C -1.945312 -4.246094 -2.148438 -4.144531 -2.199219 -3.992188 C -2.761719 -2.867188 -2.710938 -1.789062 -1.996094 -1.023438 C -1.332031 -0.203125 -0.0507812 0.203125 1.382812 0.203125 C 6.140625 0.203125 12.28125 -4.605469 15.09375 -8.035156 C 15.300781 -8.238281 15.25 -8.597656 15.042969 -8.75 Z M 4.757812 -17.195312 C 4.65625 -17.5 4.503906 -17.808594 4.453125 -17.960938 C 3.480469 -20.570312 4.195312 -23.128906 5.371094 -24.253906 C 5.679688 -24.511719 6.140625 -24.871094 6.753906 -24.871094 C 6.960938 -24.871094 7.214844 -24.816406 7.417969 -24.714844 C 7.726562 -24.613281 7.929688 -24.410156 8.035156 -24.050781 C 8.546875 -22.3125 6.550781 -18.421875 5.21875 -16.171875 C 5.066406 -16.578125 4.914062 -16.886719 4.757812 -17.195312 Z M 4.757812 -17.195312 "/></g></g></g><g fill="#222222" fill-opacity="1"><g transform="translate(238.149163, 87.482671)"><g><path d="M 11.769531 -8.75 C 11.667969 -8.800781 11.566406 -8.851562 11.460938 -8.851562 C 11.308594 -8.851562 11.207031 -8.800781 11.105469 -8.699219 C 7.265625 -4.195312 3.941406 -1.382812 1.894531 -0.972656 C 1.535156 -0.871094 1.175781 -0.871094 0.871094 -0.871094 C 0.253906 -0.871094 -0.203125 -1.023438 -0.460938 -1.382812 C -1.332031 -2.507812 -0.511719 -5.476562 0.714844 -7.878906 C 1.226562 -8.953125 4.296875 -14.53125 4.296875 -14.582031 C 4.453125 -14.839844 4.347656 -15.148438 4.144531 -15.25 C 4.042969 -15.300781 3.992188 -15.300781 3.890625 -15.300781 C 3.683594 -15.300781 3.53125 -15.25 3.429688 -15.09375 C 3.324219 -14.839844 0.359375 -9.414062 -0.152344 -8.339844 C -0.820312 -7.0625 -2.761719 -2.761719 -1.226562 -0.765625 C -0.765625 -0.152344 -0.0507812 0.152344 0.871094 0.152344 C 4.757812 0.152344 9.519531 -5.269531 11.820312 -8.035156 C 12.023438 -8.238281 11.972656 -8.546875 11.769531 -8.75 Z M 4.964844 -17.089844 C 5.015625 -17.089844 5.117188 -17.039062 5.167969 -17.039062 C 5.371094 -17.039062 5.527344 -17.140625 5.628906 -17.347656 L 6.34375 -18.730469 C 6.449219 -18.933594 6.394531 -19.242188 6.140625 -19.34375 C 6.039062 -19.394531 5.988281 -19.394531 5.882812 -19.394531 C 5.730469 -19.394531 5.527344 -19.292969 5.476562 -19.136719 L 4.757812 -17.757812 C 4.605469 -17.550781 4.707031 -17.246094 4.964844 -17.089844 Z M 4.964844 -17.089844 "/></g></g></g><g fill="#222222" fill-opacity="1"><g transform="translate(249.252281, 87.482671)"><g><path d="M 22.003906 -8.75 C 21.902344 -8.800781 21.746094 -8.851562 21.644531 -8.851562 C 21.492188 -8.851562 21.390625 -8.800781 21.289062 -8.699219 C 19.445312 -6.34375 16.886719 -5.015625 14.277344 -5.015625 C 13.304688 -5.015625 12.332031 -5.21875 11.460938 -5.578125 C 13.253906 -8.339844 14.429688 -12.535156 11.207031 -14.53125 C 10.644531 -14.839844 10.082031 -15.042969 9.519531 -15.09375 C 9.3125 -15.300781 9.007812 -15.453125 8.699219 -15.554688 C 8.441406 -15.660156 8.1875 -15.710938 7.828125 -15.710938 C 3.941406 -15.710938 -0.613281 -8.902344 -1.074219 -5.578125 C -1.332031 -4.042969 -1.125 -2.710938 -0.511719 -1.6875 C 0.253906 -0.511719 1.484375 0.101562 3.019531 0.101562 C 6.140625 0.101562 9.007812 -2.40625 10.898438 -4.757812 C 11.921875 -4.246094 13.101562 -4.042969 14.328125 -4.042969 C 17.195312 -4.042969 20.007812 -5.527344 22.054688 -8.085938 C 22.207031 -8.289062 22.207031 -8.597656 22.003906 -8.75 Z M 3.019531 -0.921875 C 1.789062 -0.921875 0.921875 -1.382812 0.359375 -2.25 C -0.152344 -3.019531 -0.308594 -4.144531 -0.101562 -5.425781 C 0.359375 -8.546875 3.273438 -12.382812 5.78125 -13.96875 C 6.550781 -14.480469 7.214844 -14.738281 7.777344 -14.738281 C 7.878906 -14.738281 7.984375 -14.738281 8.085938 -14.6875 C 7.878906 -14.582031 7.675781 -14.378906 7.523438 -14.175781 C 5.78125 -12.179688 6.601562 -8.75 8.085938 -6.960938 C 8.648438 -6.292969 9.3125 -5.679688 10.03125 -5.21875 C 8.390625 -3.121094 5.832031 -0.921875 3.019531 -0.921875 Z M 10.59375 -6.039062 C 9.925781 -6.449219 9.363281 -6.960938 8.851562 -7.574219 C 7.164062 -9.621094 7.214844 -12.382812 8.238281 -13.558594 C 8.496094 -13.816406 8.800781 -14.019531 9.160156 -14.070312 C 9.722656 -13.355469 10.03125 -12.128906 9.925781 -10.746094 C 9.875 -10.4375 10.082031 -10.234375 10.386719 -10.183594 C 10.644531 -10.183594 10.898438 -10.386719 10.898438 -10.644531 C 11 -11.871094 10.796875 -12.945312 10.4375 -13.816406 C 10.542969 -13.765625 10.59375 -13.714844 10.695312 -13.664062 C 13.558594 -11.972656 11.921875 -8.035156 10.59375 -6.039062 Z M 10.59375 -6.039062 "/></g></g></g><g fill="#222222" fill-opacity="1"><g transform="translate(270.537516, 87.482671)"><g><path d="M 23.179688 -8.75 C 23.078125 -8.800781 22.976562 -8.851562 22.875 -8.851562 C 22.71875 -8.851562 22.617188 -8.800781 22.515625 -8.699219 C 18.933594 -4.503906 15.402344 -1.535156 13.304688 -0.972656 C 13.046875 -0.871094 12.742188 -0.820312 12.433594 -0.820312 C 11.972656 -0.820312 11.511719 -0.972656 11.15625 -1.332031 C 10.386719 -2.199219 10.488281 -4.042969 11.308594 -6.089844 C 11.617188 -6.855469 12.023438 -7.675781 12.433594 -8.496094 C 13.714844 -11.105469 14.890625 -13.558594 13.96875 -14.839844 C 13.664062 -15.300781 13.046875 -15.554688 12.28125 -15.554688 C 12.023438 -15.554688 11.820312 -15.554688 11.566406 -15.503906 C 7.417969 -14.941406 3.890625 -11.820312 1.175781 -8.851562 C 2.097656 -10.488281 3.121094 -12.382812 4.296875 -14.429688 C 4.402344 -14.636719 4.347656 -14.941406 4.09375 -15.09375 C 3.992188 -15.148438 3.941406 -15.148438 3.835938 -15.148438 C 3.683594 -15.148438 3.480469 -15.042969 3.429688 -14.890625 C 0.664062 -9.976562 -4.042969 -1.484375 -4.757812 0 C -4.914062 0.253906 -4.808594 0.5625 -4.554688 0.664062 C -4.503906 0.714844 -4.402344 0.714844 -4.347656 0.714844 C -4.144531 0.714844 -3.992188 0.613281 -3.890625 0.460938 C -3.890625 0.359375 -3.683594 0.101562 -3.632812 0.0507812 C -1.175781 -5.425781 5.476562 -13.664062 11.71875 -14.53125 C 11.921875 -14.53125 12.128906 -14.582031 12.332031 -14.582031 C 12.691406 -14.582031 13.046875 -14.53125 13.203125 -14.277344 C 13.355469 -14.070312 13.457031 -13.558594 13.046875 -12.28125 C 12.691406 -11.308594 12.128906 -10.082031 11.566406 -8.953125 C 11.15625 -8.085938 10.746094 -7.265625 10.386719 -6.5 C 9.363281 -4.042969 9.414062 -1.84375 10.4375 -0.664062 C 10.898438 -0.101562 11.617188 0.152344 12.433594 0.152344 C 15.964844 0.152344 21.082031 -5.476562 23.230469 -8.035156 C 23.4375 -8.238281 23.386719 -8.546875 23.179688 -8.75 Z M 23.179688 -8.75 "/></g></g></g></svg>